<svg width="102" height="36" viewBox="0 0 102 36" fill="none" xmlns="http://www.w3.org/2000/svg">
<path d="M13.3559 9.11392H15.2639C15.3911 9.11392 15.5183 8.98373 15.5183 8.85353C15.5183 8.72333 15.3911 8.59313 15.2639 8.59313H13.3559C13.2287 8.59313 13.1015 8.72333 13.1015 8.85353C13.1015 8.98373 13.2287 9.11392 13.3559 9.11392ZM14.3099 26.3002C13.7375 26.3002 13.2923 26.7559 13.2923 27.3418C13.2923 27.9277 13.7375 28.3834 14.3099 28.3834C14.8823 28.3834 15.3275 27.9277 15.3275 27.3418C15.2639 26.7559 14.8187 26.3002 14.3099 26.3002ZM9.41274 25.3888H19.2071V10.6112H9.41274V25.3888ZM40.7674 20.5714C40.3222 20.5714 39.877 20.7016 39.4954 21.0271C39.1138 21.3526 38.8594 21.7432 38.7322 22.264C38.6686 22.5244 38.6686 22.7197 38.6686 22.8499V24.2821C38.6686 24.9331 38.8594 25.4539 39.241 25.9096C39.6226 26.3653 40.1314 26.5606 40.7038 26.5606C41.4034 26.5606 41.9757 26.3002 42.3573 25.7143C42.7389 25.1284 42.9297 24.4123 42.9297 23.5009C42.9297 22.6546 42.7389 21.9385 42.3573 21.4177C41.9757 20.8318 41.4669 20.5714 40.7674 20.5714ZM75.0475 20.4412C74.2844 20.4412 73.712 20.7667 73.3304 21.4828C73.0124 22.0687 72.8216 22.7197 72.8216 23.566C72.8216 24.3472 73.0124 25.0633 73.3304 25.5841C73.712 26.3002 74.2844 26.6257 75.0475 26.6257C75.7471 26.6257 76.3195 26.3002 76.7011 25.5841C77.0827 24.9982 77.2099 24.3472 77.2099 23.5009C77.2099 22.6546 77.0191 22.0036 76.7011 21.4828C76.3195 20.7667 75.8107 20.4412 75.0475 20.4412ZM50.0529 20.5714C49.6077 20.5714 49.1625 20.7016 48.7809 21.0271C48.3993 21.3526 48.1449 21.7432 48.0177 22.264C47.9541 22.5244 47.9541 22.7197 47.9541 22.8499V24.2821C47.9541 24.9331 48.1449 25.4539 48.5265 25.9096C48.9081 26.3653 49.4169 26.5606 49.9893 26.5606C50.6889 26.5606 51.2613 26.3002 51.6429 25.7143C52.0245 25.1284 52.2153 24.4123 52.2153 23.5009C52.2153 22.6546 52.0245 21.9385 51.6429 21.4177C51.2613 20.8318 50.7525 20.5714 50.0529 20.5714ZM30.655 17.4467C30.5278 17.9675 30.337 18.6835 30.0826 19.7251L29.1286 22.8499H32.3086L31.291 19.7251C31.1002 19.3996 30.9094 18.6184 30.655 17.4467ZM89.2939 20.311C88.6579 20.311 88.2127 20.5714 87.7675 21.0922C87.4495 21.4828 87.2587 22.0036 87.1951 22.5895H91.1383C91.1383 22.0036 91.0111 21.5479 90.7567 21.0922C90.5023 20.6365 89.9934 20.311 89.2939 20.311ZM38.923 11.783C38.923 11.7179 38.923 11.5877 38.923 11.5226V10.9367C38.1598 10.9367 37.3966 11.0669 37.3966 11.783C37.3966 12.2387 37.651 12.434 38.0326 12.434C38.4778 12.434 38.7958 12.1085 38.923 11.783ZM28.6834 8.98373C28.5562 8.59313 28.4926 8.20253 28.3654 7.81194C28.3018 8.13743 28.1746 8.59313 28.0474 8.98373L27.6022 10.481H29.1286L28.6834 8.98373ZM96.9258 0H4.26117C1.90799 0 0 1.95298 0 4.36166V31.6383C0 34.047 1.90799 36 4.26117 36H96.9258C99.279 36 101.187 34.047 101.187 31.6383V4.36166C101.187 1.95298 99.279 0 96.9258 0ZM91.0746 8.52803C92.4738 8.52803 92.9826 9.69982 92.9826 10.6763C92.9826 10.8716 92.9826 11.0669 92.919 11.132H89.9935C89.9935 11.9132 90.6295 12.3038 91.3291 12.3038C91.8379 12.3038 92.2194 12.2387 92.5374 12.1085L92.7282 12.8897C92.3466 13.085 91.8378 13.1501 91.2018 13.1501C89.8027 13.1501 88.9759 12.2387 88.9759 10.8716C88.9123 9.69982 89.6755 8.52803 91.0746 8.52803ZM73.5848 8.65823L73.6484 9.30922C73.8392 8.98373 74.348 8.52803 75.0475 8.52803C75.8107 8.52803 76.5739 9.04883 76.5739 10.4159V13.085H75.4927V10.5461C75.4927 9.89512 75.2383 9.43942 74.6659 9.43942C74.2207 9.43942 73.9028 9.76492 73.7756 10.0904C73.712 10.1555 73.712 10.3508 73.712 10.4159V13.0199H72.6308V9.89512C72.6308 9.37432 72.6308 8.98372 72.5672 8.59313H73.5848V8.65823ZM62.0096 8.52803C63.4088 8.52803 63.9176 9.69982 63.9176 10.6763C63.9176 10.8716 63.9176 11.0669 63.854 11.132H60.9284C60.9284 11.9132 61.5644 12.3038 62.264 12.3038C62.7728 12.3038 63.1544 12.2387 63.4724 12.1085L63.6632 12.8897C63.2816 13.085 62.7728 13.1501 62.1368 13.1501C60.7376 13.1501 59.9108 12.2387 59.9108 10.8716C59.9108 9.69982 60.6104 8.52803 62.0096 8.52803ZM57.4941 6.57505H58.5752V13.085H57.4941V6.57505ZM48.7809 9.37432C48.3357 9.37432 47.8905 9.50452 47.6361 9.69982L47.4453 8.98373C47.7633 8.78843 48.3357 8.59313 49.0353 8.59313C50.4345 8.59313 50.8161 9.50452 50.8161 10.481V12.1085C50.8161 12.4991 50.8161 12.8897 50.8797 13.1501H49.8621L49.7985 12.6293C49.5441 12.9548 49.0989 13.2152 48.5265 13.2152C47.6361 13.2152 47.1273 12.5642 47.1273 11.9132C47.1273 10.8065 48.0813 10.2206 49.7349 10.2206V10.1555C49.6713 9.83002 49.5441 9.37432 48.7809 9.37432ZM42.2937 6.77034C42.6753 6.77034 42.9297 7.03074 42.9297 7.35624C42.9297 7.68174 42.6753 7.94213 42.2937 7.94213C41.9121 7.94213 41.6577 7.68174 41.6577 7.35624C41.6577 7.03074 41.9121 6.77034 42.2937 6.77034ZM42.8025 8.65823V13.1501H41.7213V8.65823H42.8025ZM27.6658 6.96564H29.065L31.0366 13.1501H29.8282L29.2558 11.3924H27.3478L26.839 13.1501H25.6942L27.6658 6.96564ZM20.3519 27.4069C20.3519 28.5136 19.4615 29.3599 18.4439 29.3599H10.1759C9.09475 29.3599 8.26795 28.4485 8.26795 27.4069V8.59313C8.26795 7.48644 9.15834 6.64014 10.1759 6.64014H18.4439C19.5251 6.64014 20.3519 7.55154 20.3519 8.59313V27.4069ZM33.6442 27.8626L32.563 24.3472H28.747L27.7294 27.8626H25.7578L29.5102 15.8843H31.8634L35.6794 27.8626H33.6442ZM34.0894 13.085H33.0082L31.4182 8.59313H32.6266L33.3262 10.8716C33.4534 11.2622 33.517 11.6528 33.6442 11.9783C33.7078 11.5877 33.835 11.2622 33.9622 10.8716L34.6618 8.59313H35.8066L34.0894 13.085ZM36.3154 11.9132C36.3154 10.8065 37.2694 10.2206 38.923 10.2206V10.1555C38.923 9.83002 38.7958 9.37432 38.0326 9.37432C37.5874 9.37432 37.1422 9.50452 36.8878 9.69982L36.697 8.98373C37.015 8.78843 37.5874 8.59313 38.287 8.59313C39.6862 8.59313 40.0678 9.50452 40.0678 10.481V12.1085C40.0678 12.4991 40.0678 12.8897 40.1314 13.1501H39.1138L39.0502 12.6293C38.7958 12.9548 38.3506 13.2152 37.7782 13.2152C36.8242 13.2152 36.3154 12.5642 36.3154 11.9132ZM43.6929 26.8861C42.9933 27.6673 42.1029 27.9928 41.0854 27.9928C39.9406 27.9928 39.1774 27.6022 38.6686 26.7559V31.3128H36.7606V22.0687C36.7606 21.1573 36.7606 20.1808 36.697 19.2043H38.3506L38.4778 20.5714H38.5414C39.1774 19.5298 40.1314 19.009 41.4034 19.009C42.4209 19.009 43.2477 19.3996 43.8837 20.2459C44.5197 21.0271 44.9013 22.1338 44.9013 23.4358C44.8377 24.868 44.4561 26.0398 43.6929 26.8861ZM45.6645 13.085H44.5197V6.57505H45.6009V13.085H45.6645ZM52.9785 26.8861C52.2789 27.6673 51.3885 27.9928 50.3709 27.9928C49.2261 27.9928 48.4629 27.6022 47.9541 26.7559V31.3128H46.0461V22.0687C46.0461 21.1573 46.0461 20.1808 45.9825 19.2043H47.6361L47.7633 20.5714H47.8269C48.4629 19.5298 49.4169 19.009 50.6889 19.009C51.7065 19.009 52.5333 19.3996 53.1693 20.2459C53.8689 21.0271 54.1869 22.1338 54.1869 23.4358C54.1869 24.868 53.7417 26.0398 52.9785 26.8861ZM54.2505 13.2152C53.6781 13.2152 53.1693 13.0199 52.8513 12.434L52.7877 13.085H51.8337C51.8337 12.7595 51.8973 12.3038 51.8973 11.8481V6.57505H52.9785V9.24412C53.2329 8.78843 53.7417 8.52803 54.3777 8.52803C55.4589 8.52803 56.2221 9.43942 56.2221 10.8065C56.2857 12.434 55.2681 13.2152 54.2505 13.2152ZM63.7268 27.0163C62.9636 27.7324 61.8824 28.0579 60.5468 28.0579C59.2748 28.0579 58.2572 27.7975 57.4941 27.3418L57.9393 25.7143C58.766 26.2351 59.6564 26.4304 60.674 26.4304C61.3736 26.4304 61.946 26.2351 62.3276 25.9096C62.7092 25.5841 62.9 25.1284 62.9 24.6076C62.9 24.1519 62.7092 23.6962 62.3912 23.3707C62.0732 23.0452 61.5008 22.7197 60.8012 22.4593C58.766 21.6781 57.7485 20.5063 57.7485 19.009C57.7485 18.0326 58.13 17.1863 58.8296 16.6004C59.5292 15.9494 60.5468 15.689 61.6916 15.689C62.7728 15.689 63.6632 15.8843 64.3628 16.2749L63.9176 17.8373C63.2816 17.4467 62.5184 17.3165 61.6916 17.3165C61.0556 17.3165 60.4832 17.5118 60.1652 17.8373C59.8472 18.1627 59.72 18.4882 59.72 18.9439C59.72 19.3996 59.9108 19.7902 60.2288 20.1157C60.5468 20.3761 61.1192 20.7016 61.946 21.0271C62.9636 21.4177 63.7268 21.9385 64.172 22.4593C64.6172 23.0452 64.8716 23.6962 64.8716 24.5425C64.808 25.519 64.4264 26.3653 63.7268 27.0163ZM70.3412 20.6365H68.2424V24.868C68.2424 25.9096 68.624 26.4955 69.3236 26.4955C69.6416 26.4955 69.9596 26.4955 70.1504 26.4304L70.214 27.8626C69.8324 27.9928 69.3872 28.0579 68.7512 28.0579C67.988 28.0579 67.4156 27.7975 67.034 27.3418C66.5888 26.8861 66.398 26.1049 66.398 24.9982V20.6365H65.1896V19.2043H66.398V17.642L68.2424 17.0561V19.2043H70.3412V20.6365ZM69.3236 13.2152C68.1152 13.2152 67.1612 12.3689 67.1612 10.9367C67.1612 9.43942 68.1152 8.59313 69.3872 8.59313C70.6592 8.59313 71.5496 9.50452 71.5496 10.8716C71.5496 12.4991 70.4048 13.2152 69.3236 13.2152ZM78.1003 26.7559C77.3371 27.6022 76.2559 28.0579 74.9839 28.0579C73.712 28.0579 72.758 27.6673 71.9948 26.821C71.2316 25.9747 70.9136 24.9331 70.9136 23.6311C70.9136 22.264 71.2952 21.1573 72.0584 20.311C72.8216 19.4647 73.8392 19.009 75.1111 19.009C76.3831 19.009 77.3371 19.3996 78.1003 20.2459C78.7999 21.0922 79.1815 22.1338 79.1815 23.4358C79.1815 24.8029 78.7999 25.9096 78.1003 26.7559ZM80.0083 8.65823H80.6443V7.81194L81.7255 7.48644V8.65823H82.7431V9.50452H81.7255V11.4575C81.7255 11.9783 81.8527 12.3038 82.2979 12.3038C82.4887 12.3038 82.6159 12.3038 82.7431 12.2387V13.085C82.5523 13.1501 82.2979 13.2152 81.9163 13.2152C81.5347 13.2152 81.1531 13.085 80.9623 12.8246C80.7079 12.5642 80.6443 12.1736 80.6443 11.5877V9.50452H80.0083V8.65823ZM84.8419 20.8969C84.6511 20.8318 84.4603 20.8318 84.2695 20.8318C83.6335 20.8318 83.1247 21.0922 82.7431 21.613C82.4251 22.0687 82.2979 22.6546 82.2979 23.3056V27.8626H80.3899V21.9385C80.3899 20.962 80.3899 20.0506 80.3263 19.2043H81.9799L82.0435 20.8318H82.1071C82.2979 20.2459 82.6159 19.7902 83.0611 19.4647C83.5063 19.1392 83.9515 19.009 84.3967 19.009C84.5875 19.009 84.7147 19.009 84.8419 19.009V20.8969ZM85.1599 10.4159V13.085H84.0787V6.57505H85.1599V9.24412C85.2871 9.04883 85.4779 8.85353 85.7323 8.72333C85.9867 8.59313 86.2411 8.52803 86.4955 8.52803C87.2587 8.52803 88.0219 9.04883 88.0219 10.481V13.085H86.9407V10.5461C86.9407 9.89512 86.6863 9.43942 86.1139 9.43942C85.6687 9.43942 85.3507 9.76492 85.2235 10.0904C85.1599 10.2206 85.1599 10.2857 85.1599 10.4159ZM92.919 24.0217H87.2587C87.2587 24.868 87.5767 25.519 88.0855 25.9747C88.5307 26.3653 89.1667 26.5606 89.9299 26.5606C90.7567 26.5606 91.5198 26.4304 92.2194 26.17L92.5374 27.5371C91.7107 27.9277 90.8203 28.0579 89.6755 28.0579C88.3399 28.0579 87.3223 27.6673 86.5591 26.8861C85.7959 26.1049 85.4143 25.0633 85.4143 23.6962C85.4143 22.3942 85.7959 21.2875 86.4319 20.4412C87.1951 19.5298 88.1491 19.0741 89.4211 19.0741C90.6295 19.0741 91.5834 19.5298 92.2194 20.4412C92.7282 21.1573 92.9826 22.0687 92.9826 23.1754C92.9826 23.4358 92.919 23.7613 92.919 24.0217ZM54.0597 9.43942C53.6145 9.43942 53.1693 9.76492 53.1057 10.2857C53.1057 10.3508 53.0421 10.481 53.0421 10.6112V11.3273C53.0421 11.3924 53.0421 11.5226 53.0421 11.5877C53.1693 12.0434 53.5509 12.3689 53.9961 12.3689C54.6957 12.3689 55.0773 11.783 55.0773 10.8716C55.1409 10.0904 54.7593 9.43942 54.0597 9.43942ZM61.946 9.30922C61.2464 9.30922 60.992 9.96022 60.9284 10.4159H62.8364C62.9 10.0253 62.7092 9.30922 61.946 9.30922ZM69.3872 9.37432C68.624 9.37432 68.306 10.1555 68.306 10.8716C68.306 11.7179 68.7512 12.3689 69.3872 12.3689C70.0232 12.3689 70.4684 11.7179 70.4684 10.8716C70.4048 10.1555 70.0868 9.37432 69.3872 9.37432ZM48.1449 11.783C48.1449 12.2387 48.3993 12.434 48.7809 12.434C49.2261 12.434 49.5441 12.1085 49.6713 11.8481C49.6713 11.783 49.6713 11.6528 49.6713 11.5877V11.0018C48.9081 10.9367 48.1449 11.0669 48.1449 11.783ZM91.0111 9.30922C90.3115 9.30922 90.0571 9.96022 89.9935 10.4159H91.9014C91.9014 10.0253 91.7107 9.30922 91.0111 9.30922Z" fill="#858586"/>
</svg>
