<svg width="34" height="36" viewBox="0 0 34 36" fill="none" xmlns="http://www.w3.org/2000/svg">
<path fill-rule="evenodd" clip-rule="evenodd" d="M15.9444 35.8889C25.8549 35.8889 33.8889 27.8549 33.8889 17.9444C33.8889 8.034 25.8549 0 15.9444 0C6.034 0 -2 8.034 -2 17.9444C-2 27.8549 6.034 35.8889 15.9444 35.8889ZM8.7194 7.94434H22.6695C24.2445 7.94434 25.4445 9.14434 25.4445 10.7193V24.6694C25.4445 26.2444 24.2445 27.4444 22.6695 27.4444H8.7194C7.1444 27.4444 5.9444 26.2444 5.9444 24.6694V10.7193C5.9444 9.14434 7.1444 7.94434 8.7194 7.94434ZM21.5444 17.9194C21.5444 20.9944 18.9194 23.5444 15.6944 23.5444C12.4694 23.5444 9.84441 20.9944 9.91941 17.8444C9.91941 17.3194 9.99441 16.7944 10.1444 16.2694H8.41941V24.2944C8.41941 24.7444 8.79441 25.0444 9.16941 25.0444H22.2194C22.6694 25.0444 22.9694 24.6694 22.9694 24.2944V16.3444H21.3194C21.4694 16.7944 21.5444 17.3944 21.5444 17.9194ZM11.9444 17.6194C11.9444 19.6444 13.5944 21.2944 15.6944 21.2944C17.7944 21.2944 19.4444 19.7194 19.4444 17.6194C19.4444 15.5944 17.7944 13.9444 15.6944 13.9444C13.5944 13.9444 11.9444 15.5944 11.9444 17.6194ZM22.0694 14.0944C22.5194 14.0944 22.8945 13.7194 22.8945 13.2694V11.2443C22.8945 10.7943 22.5194 10.4193 22.0694 10.4193H19.9694C19.5194 10.4193 19.1444 10.7943 19.1444 11.2443V13.2694C19.1444 13.7194 19.5194 14.0944 19.9694 14.0944H22.0694Z" fill="#F1F1F1"/>
</svg>
