<svg width="23" height="19" viewBox="0 0 23 19" fill="none" xmlns="http://www.w3.org/2000/svg">
<path d="M11.5006 18.0938C11.5006 18.0938 1.73499 12.625 1.73499 5.98438C1.73518 4.81069 2.14187 3.67328 2.88591 2.76555C3.62994 1.85782 4.6654 1.23579 5.81623 1.00522C6.96705 0.774656 8.16222 0.949779 9.19852 1.50082C10.2348 2.05186 11.0483 2.94481 11.5006 4.02784L11.5006 4.02785C11.9529 2.94481 12.7664 2.05187 13.8027 1.50082C14.839 0.949782 16.0342 0.774656 17.185 1.00522C18.3358 1.23579 19.3713 1.85782 20.1153 2.76555C20.8593 3.67328 21.266 4.81069 21.2662 5.98438C21.2662 12.625 11.5006 18.0938 11.5006 18.0938Z" stroke="#202020" stroke-width="1.5" stroke-linecap="round" stroke-linejoin="round"/>
</svg>
