<svg width="34" height="30" viewBox="0 0 34 30" fill="none" xmlns="http://www.w3.org/2000/svg">
<path d="M17.1133 28.9942C17.1133 28.9942 1.09766 20.0254 1.09766 9.13478C1.09798 7.20992 1.76495 5.34457 2.98517 3.85589C4.20539 2.36721 5.90353 1.34709 7.79089 0.968957C9.67824 0.590826 11.6383 0.878029 13.3378 1.78174C15.0374 2.68545 16.3715 4.14987 17.1133 5.92605L17.1133 5.92606C17.8551 4.14989 19.1892 2.68545 20.8887 1.78174C22.5882 0.878033 24.5483 0.590827 26.4357 0.968957C28.323 1.34709 30.0212 2.36721 31.2414 3.85589C32.4616 5.34457 33.1286 7.20991 33.1289 9.13478C33.1289 20.0254 17.1133 28.9942 17.1133 28.9942Z" fill="#FF5252" stroke="white" stroke-width="1.5" stroke-linecap="round" stroke-linejoin="round"/>
</svg>
