<svg width="21" height="21" viewBox="0 0 21 21" fill="none" xmlns="http://www.w3.org/2000/svg">
<path d="M10.5 13.7812C12.3122 13.7812 13.7812 12.3122 13.7812 10.5C13.7812 8.68782 12.3122 7.21875 10.5 7.21875C8.68782 7.21875 7.21875 8.68782 7.21875 10.5C7.21875 12.3122 8.68782 13.7812 10.5 13.7812Z" stroke="black" stroke-width="1.5" stroke-linecap="round" stroke-linejoin="round"/>
<path d="M14.1094 2.95312H6.89062C4.716 2.95312 2.95312 4.716 2.95312 6.89062V14.1094C2.95312 16.284 4.716 18.0469 6.89062 18.0469H14.1094C16.284 18.0469 18.0469 16.284 18.0469 14.1094V6.89062C18.0469 4.716 16.284 2.95312 14.1094 2.95312Z" stroke="black" stroke-width="1.5" stroke-linecap="round" stroke-linejoin="round"/>
<path d="M14.7656 6.89062C15.1281 6.89062 15.4219 6.59681 15.4219 6.23438C15.4219 5.87194 15.1281 5.57812 14.7656 5.57812C14.4032 5.57812 14.1094 5.87194 14.1094 6.23438C14.1094 6.59681 14.4032 6.89062 14.7656 6.89062Z" fill="black"/>
</svg>
