<svg width="109" height="36" viewBox="0 0 109 36" fill="none" xmlns="http://www.w3.org/2000/svg">
<path d="M104.191 0H5.44107C2.81202 0 0.631836 2.14828 0.631836 4.88246V31.1175C0.631836 33.7866 2.7479 36 5.44107 36H104.191C106.82 36 109 33.8517 109 31.1175V4.88246C109 2.21338 106.82 0 104.191 0ZM61.164 7.22604H61.5488C61.6129 7.22604 61.7411 7.22604 61.8694 7.22604C61.9976 7.22604 62.19 7.22604 62.2541 7.22604C62.5106 7.22604 62.7671 7.29114 62.9595 7.42134C63.1518 7.55154 63.2801 7.74684 63.2801 8.00723C63.2801 8.39783 63.1518 8.65823 62.8953 8.85353C62.6389 9.04883 62.3182 9.11392 61.9335 9.11392C61.8694 9.11392 61.8052 9.11392 61.8052 9.11392C61.8052 9.37432 61.8052 9.76492 61.8052 10.2857H61.164C61.164 9.83002 61.164 9.30922 61.164 8.72333C61.164 8.13743 61.164 7.61664 61.164 7.22604ZM55.5853 8.78843C55.9701 7.87703 56.0983 7.35624 56.0983 7.29114H56.9319C56.9319 7.35624 57.1243 7.87703 57.4449 8.78843C57.7655 9.69982 57.9579 10.2206 57.9579 10.2857H57.2525C57.2525 10.1555 57.1884 9.89512 57.0601 9.43942H56.0342C55.9059 9.89512 55.8418 10.2206 55.8418 10.2857H55.1365C55.0723 10.1555 55.2006 9.69982 55.5853 8.78843ZM51.0326 7.22604H51.4173C51.4814 7.22604 51.6097 7.22604 51.7379 7.22604C51.8662 7.22604 51.9303 7.22604 51.9944 7.22604C52.5715 7.22604 52.9563 7.35624 53.2128 7.61664C53.4692 7.87703 53.5975 8.20253 53.5975 8.59313C53.5975 9.04882 53.4692 9.43942 53.2128 9.76492C52.9563 10.0904 52.5715 10.2857 52.0585 10.2857C51.802 10.2857 51.5456 10.2857 51.1608 10.2857C51.1608 9.83002 51.1608 9.30922 51.1608 8.72333C51.0967 8.13743 51.0967 7.61664 51.0326 7.22604ZM49.6219 7.22604H50.2631C50.2631 7.61664 50.2631 8.07233 50.2631 8.65823C50.2631 9.24412 50.2631 9.76492 50.2631 10.2206H49.6219C49.6219 9.76492 49.6219 9.24412 49.6219 8.65823C49.6219 8.13743 49.6219 7.61664 49.6219 7.22604ZM46.544 7.61664C46.8005 7.29114 47.1852 7.16094 47.5699 7.16094C47.9547 7.16094 48.2753 7.29114 48.5959 7.61664C48.8524 7.87703 48.9806 8.26763 48.9806 8.72333C48.9806 9.17902 48.8524 9.56962 48.5318 9.89512C48.2753 10.2206 47.8905 10.3508 47.5058 10.3508C47.1211 10.3508 46.8005 10.2206 46.4798 9.89512C46.2233 9.63472 46.0951 9.24412 46.0951 8.78843C46.0951 8.33273 46.2233 7.94213 46.544 7.61664ZM40.1958 7.22604H40.5805C40.6446 7.22604 40.7729 7.22604 40.9011 7.22604C41.0294 7.22604 41.0935 7.22604 41.1576 7.22604C41.7347 7.22604 42.1195 7.35624 42.376 7.61664C42.6325 7.87703 42.7607 8.20253 42.7607 8.59313C42.7607 9.04882 42.6325 9.43942 42.376 9.76492C42.1195 10.0904 41.7347 10.2857 41.2217 10.2857C40.9653 10.2857 40.7088 10.2857 40.324 10.2857C40.324 9.83002 40.324 9.30922 40.324 8.72333C40.1958 8.13743 40.1958 7.61664 40.1958 7.22604ZM36.9255 7.22604H37.6308C37.6308 7.29114 37.8232 7.61664 38.208 8.20253C38.5927 8.78843 38.8492 9.24412 38.9133 9.43942H38.9774C38.9133 9.11392 38.9133 8.78843 38.9133 8.52803C38.9133 8.13743 38.9133 7.68174 38.9133 7.22604H39.4904C39.4904 7.61664 39.4904 8.07233 39.4904 8.65823C39.4904 9.24412 39.4904 9.76492 39.4904 10.2206H38.9133C38.9133 10.1555 38.7209 9.83002 38.2721 9.24412C37.8232 8.59313 37.5667 8.20253 37.5026 7.94213H37.4385C37.5026 8.26763 37.5026 8.59313 37.5026 8.85353C37.5026 9.24412 37.5026 9.69982 37.5026 10.2206H36.9255C36.9255 9.76492 36.9896 9.24412 36.9896 8.65823C36.9896 8.13743 36.9896 7.61664 36.9255 7.22604ZM34.1041 8.78843C34.4888 7.87703 34.6171 7.35624 34.6171 7.29114H35.4507C35.4507 7.35624 35.643 7.87703 35.9637 8.78843C36.2843 9.69982 36.4766 10.2206 36.4766 10.2857H35.7713C35.7713 10.1555 35.7072 9.89512 35.5789 9.43942H34.5529C34.4247 9.89512 34.3606 10.2206 34.3606 10.2857H33.6552C33.5911 10.1555 33.7193 9.69982 34.1041 8.78843ZM10.1221 7.68174C14.7389 10.2857 19.3558 12.8897 23.9085 15.5588C24.1009 15.689 24.1009 15.7541 23.9726 15.8843C22.9467 16.9259 21.9207 17.9675 20.8947 19.009C20.7665 19.1392 20.7024 19.2043 20.5741 19.009C16.9191 15.2333 13.2641 11.4575 9.54494 7.61664C9.54494 7.61664 9.48082 7.55154 9.4167 7.48644C9.73731 7.48644 9.92968 7.61664 10.1221 7.68174ZM8.71135 30.792C8.32661 30.4665 8.19836 30.076 8.19836 29.6203C8.19836 27.6022 8.19836 25.5841 8.19836 23.566C8.19836 22.1338 8.19836 20.7016 8.19836 19.2694C8.19836 15.8843 8.19836 12.434 8.19836 9.04882C8.19836 8.65823 8.26248 8.26763 8.58309 7.94213C8.71134 7.81193 8.77546 7.81193 8.90371 7.94213C11.148 10.2857 13.4565 12.6293 15.7008 14.9729C17.1756 16.4702 18.6504 18.0326 20.1252 19.5298C20.2535 19.66 20.2535 19.7251 20.1252 19.9204C16.5344 23.566 12.9435 27.2116 9.35258 30.8571C9.03196 30.9873 8.90372 30.9873 8.71135 30.792ZM23.5238 23.3707C19.2275 25.7794 14.9313 28.123 10.635 30.5316C10.5709 30.5967 10.5068 30.6618 10.4427 30.6618C13.7771 27.2116 17.1115 23.8264 20.4459 20.3761C20.6382 20.1808 20.7665 20.1808 20.9588 20.3761C21.7924 21.2875 22.6902 22.1338 23.5238 23.0452C23.7161 23.1754 23.7161 23.2405 23.5238 23.3707ZM29.1025 20.2459C28.9101 20.3761 28.6536 20.5063 28.4612 20.6365C27.1788 21.3526 25.8322 22.0687 24.5497 22.8499C24.3574 22.9801 24.2933 22.915 24.1009 22.7848C23.2032 21.8083 22.2413 20.8318 21.3436 19.9204C21.2153 19.7902 21.2153 19.7251 21.3436 19.5949C22.4337 18.4882 23.5238 17.3816 24.6139 16.34C24.7421 16.2098 24.8062 16.2098 24.9986 16.2749C26.2811 16.991 27.5635 17.7071 28.846 18.4882C29.2307 18.6835 29.5513 19.009 29.5513 19.4647C29.5513 19.7251 29.359 19.9855 29.1025 20.2459ZM42.6966 23.4358C41.7347 24.4774 40.3881 24.9982 38.8492 24.9982C37.3102 24.9982 36.0278 24.4774 35.0018 23.3707C33.9117 22.3291 33.3987 20.962 33.3987 19.3996C33.3987 17.8373 33.9117 16.4702 35.0018 15.4286C36.0919 14.387 37.3744 13.8011 38.8492 13.8011C39.6187 13.8011 40.324 13.9313 41.0294 14.2568C41.7347 14.5823 42.2477 14.9729 42.6966 15.4286L41.7988 16.34C41.0935 15.4937 40.1316 15.1031 38.9133 15.1031C37.8232 15.1031 36.8614 15.4937 36.0278 16.2749C35.1942 17.0561 34.8094 18.0976 34.8094 19.3345C34.8094 20.5714 35.1942 21.613 36.0278 22.3942C36.8614 23.1754 37.8232 23.566 38.9133 23.566C40.0675 23.566 41.0935 23.1754 41.863 22.3942C42.376 21.8734 42.6966 21.1573 42.7607 20.2459H38.9133V18.9439H44.0432C44.1073 19.2043 44.1073 19.4647 44.1073 19.7251C44.0432 21.3526 43.5943 22.5895 42.6966 23.4358ZM43.9149 9.04882C43.9149 9.43942 43.9149 9.83002 43.9149 10.2206H43.2737C43.2737 9.76492 43.2737 9.24412 43.2737 8.65823C43.2737 8.07233 43.2737 7.61664 43.2737 7.22604H43.6584C43.7225 7.22604 43.7867 7.22604 43.9149 7.22604C44.0432 7.22604 44.1714 7.22604 44.2997 7.22604C45.005 7.22604 45.3256 7.48644 45.3256 7.94213C45.3256 8.33273 45.1333 8.59313 44.7485 8.72333V8.78843C44.8768 8.85353 45.005 8.98373 45.1332 9.17902C45.2615 9.37432 45.3897 9.76492 45.5821 10.2857H44.8768C44.6844 9.76492 44.5561 9.37432 44.492 9.24412C44.4279 9.11392 44.2355 9.04882 44.0432 9.04882C44.1073 9.04882 44.0432 9.04882 43.9149 9.04882ZM50.9685 23.8915C50.2631 24.6076 49.3654 24.9982 48.3394 24.9982C47.2493 24.9982 46.3516 24.6076 45.7104 23.8915C45.005 23.1754 44.6844 22.1989 44.6844 21.0922C44.6844 19.9855 45.005 19.0741 45.7104 18.2929C46.4157 17.5769 47.3134 17.1863 48.3394 17.1863C49.4295 17.1863 50.3272 17.5769 50.9685 18.2929C51.6738 19.009 51.9944 19.9855 51.9944 21.0922C51.9944 22.264 51.6738 23.1754 50.9685 23.8915ZM58.7915 23.8915C58.0861 24.6076 57.1884 24.9982 56.1624 24.9982C55.0723 24.9982 54.1746 24.6076 53.5334 23.8915C52.828 23.1754 52.5074 22.1989 52.5074 21.0922C52.5074 19.9855 52.828 19.0741 53.5334 18.2929C54.2387 17.5769 55.1365 17.1863 56.1624 17.1863C57.2525 17.1863 58.1502 17.5769 58.7915 18.2929C59.4968 19.009 59.8174 19.9855 59.8174 21.0922C59.8816 22.264 59.4968 23.1754 58.7915 23.8915ZM59.1762 9.11392C59.1121 9.11392 59.048 9.11392 59.048 9.11392C59.048 9.37432 59.048 9.76492 59.048 10.2857H58.4067C58.4067 9.83002 58.4067 9.30922 58.4067 8.72333C58.4067 8.13743 58.4067 7.68174 58.4067 7.29114H58.7915C58.8556 7.29114 58.9838 7.29114 59.1121 7.29114C59.2403 7.29114 59.4327 7.29114 59.4968 7.29114C59.7533 7.29114 60.0098 7.35624 60.2022 7.48644C60.3945 7.61664 60.5228 7.81193 60.5228 8.07233C60.5228 8.46293 60.3945 8.72333 60.138 8.91863C59.9457 8.98373 59.5609 9.11392 59.1762 9.11392ZM67.5763 24.4123C67.5763 25.6492 67.1916 26.6257 66.4862 27.2767C65.7809 27.9277 64.8832 28.2532 63.8572 28.2532C63.0236 28.2532 62.3182 28.0579 61.7411 27.6022C61.2281 27.1465 60.8434 26.6908 60.5869 26.1049L61.8052 25.5841C61.9335 25.9747 62.19 26.3002 62.5747 26.5606C62.9595 26.821 63.3442 26.9512 63.8572 26.9512C64.6267 26.9512 65.2038 26.7559 65.5885 26.3002C66.0374 25.8445 66.2297 25.2586 66.2297 24.4774V23.7613H66.1656C65.9091 24.0868 65.5885 24.4123 65.1397 24.6727C64.6908 24.9331 64.2419 25.0633 63.6648 25.0633C62.703 25.0633 61.9335 24.6727 61.2281 23.9566C60.5228 23.2405 60.2022 22.264 60.2022 21.1573C60.2022 20.0506 60.5228 19.1392 61.2281 18.358C61.9335 17.642 62.703 17.2514 63.6648 17.2514C64.1778 17.2514 64.6908 17.3816 65.1397 17.5769C65.5885 17.8373 65.9091 18.0977 66.1656 18.4882H66.2297V17.4467H67.5122V24.4123H67.5763ZM67.384 9.83002C67.1275 10.1555 66.7427 10.2857 66.358 10.2857C65.9732 10.2857 65.6526 10.1555 65.332 9.83002C65.0755 9.56962 64.9473 9.17902 64.9473 8.72333C64.9473 8.26763 65.0755 7.87703 65.3961 7.55154C65.6526 7.22604 66.0374 7.09584 66.4221 7.09584C66.8069 7.09584 67.1275 7.22604 67.4481 7.55154C67.7046 7.81194 67.8328 8.20253 67.8328 8.65823C67.7687 9.17902 67.6405 9.56962 67.384 9.83002ZM70.2054 24.8029H68.8588V14.1266H70.2054V24.8029ZM70.8466 10.2206H70.2695C70.2695 10.1555 70.0771 9.83002 69.6283 9.24412C69.1794 8.59313 68.9229 8.20253 68.8588 7.94213H68.9229C68.987 8.26763 68.987 8.59313 68.987 8.85353C68.987 9.24412 68.987 9.69982 68.987 10.2206H68.4099C68.4099 9.76492 68.474 9.24412 68.474 8.65823C68.474 8.07233 68.4741 7.61664 68.4099 7.22604H69.1153C69.1153 7.29114 69.3077 7.61664 69.6924 8.20253C70.0771 8.78843 70.3336 9.24412 70.3977 9.43942H70.4619C70.3977 9.11392 70.3977 8.78843 70.3977 8.52803C70.3977 8.13743 70.3977 7.68174 70.3977 7.22604H70.9749C70.9749 7.61664 70.9749 8.07233 70.9749 8.65823C70.8466 9.24412 70.8466 9.76492 70.8466 10.2206ZM78.0284 21.3526H72.3214C72.3855 22.0687 72.5779 22.6546 73.0268 23.1103C73.4756 23.566 73.9886 23.7613 74.5657 23.7613C75.5276 23.7613 76.1688 23.3707 76.5536 22.5244L77.7719 23.0452C77.5154 23.6311 77.1307 24.0868 76.6177 24.4774C76.1047 24.868 75.3993 25.0633 74.6299 25.0633C73.5398 25.0633 72.642 24.6727 72.0008 23.9566C71.2955 23.2405 70.9749 22.264 70.9749 21.1573C70.9749 20.1157 71.2955 19.2043 71.9367 18.4231C72.5779 17.642 73.4115 17.2514 74.5016 17.2514C75.5917 17.2514 76.4253 17.5769 77.0666 18.2929C77.7078 19.009 78.0284 19.9204 78.0284 21.1573V21.3526ZM87.9033 19.5298C87.2621 20.1157 86.4926 20.4412 85.5949 20.4412H83.3506V24.7378H82.004V14.1266H85.5949C86.4926 14.1266 87.2621 14.4521 87.9033 15.038C88.5446 15.6239 88.8652 16.4051 88.8652 17.3165C88.8652 18.2278 88.5446 18.9439 87.9033 19.5298ZM91.1095 24.8029H89.7629V14.1266H91.1095V24.8029ZM98.2913 24.8029H97.0088V23.7613H96.9447C96.4317 24.6076 95.5981 24.9982 94.5721 24.9982C93.8027 24.9982 93.1614 24.8029 92.6485 24.3472C92.1355 23.8915 91.879 23.3056 91.879 22.5895C91.879 21.8083 92.1996 21.1573 92.7767 20.7016C93.3538 20.2459 94.1233 20.0506 95.021 20.0506C95.7905 20.0506 96.4958 20.1808 96.9447 20.5063V20.311C96.9447 19.7902 96.7523 19.3345 96.4317 19.009C96.047 18.6835 95.5981 18.5533 95.0851 18.5533C94.7004 18.5533 94.3157 18.6184 93.995 18.8137C93.6744 19.009 93.4821 19.2694 93.3538 19.5949L92.1355 19.0741C92.3278 18.6184 92.6485 18.2278 93.0973 17.8373C93.6103 17.4467 94.2515 17.2514 95.021 17.2514C95.9187 17.2514 96.6882 17.5118 97.3294 18.0976C97.9065 18.6184 98.2272 19.3996 98.2272 20.4412V24.8029H98.2913ZM101.241 27.9928H99.8302L101.497 24.2821L98.5478 17.4467H100.023L102.139 22.7197L104.255 17.4467H105.73L101.241 27.9928Z" fill="#858586"/>
</svg>
