<svg width="21" height="21" viewBox="0 0 21 21" fill="none" xmlns="http://www.w3.org/2000/svg">
<path d="M3.72658 14.5196C2.74816 12.8702 2.40551 10.9204 2.76297 9.0363C3.12043 7.15216 4.15341 5.46333 5.66793 4.28692C7.18246 3.1105 9.07435 2.52744 10.9883 2.64721C12.9023 2.76698 14.7068 3.58135 16.0628 4.9374C17.4189 6.29344 18.2333 8.09788 18.353 10.0119C18.4728 11.9259 17.8898 13.8178 16.7134 15.3323C15.537 16.8468 13.8481 17.8798 11.964 18.2373C10.0799 18.5948 8.13006 18.2521 6.48068 17.2737L3.76082 18.0507C3.64829 18.0829 3.52921 18.0844 3.41592 18.055C3.30263 18.0256 3.19925 17.9665 3.11649 17.8838C3.03374 17.801 2.97462 17.6976 2.94526 17.5843C2.91591 17.4711 2.91738 17.352 2.94953 17.2394L3.72658 14.5196Z" stroke="white" stroke-width="1.3125" stroke-linecap="round" stroke-linejoin="round"/>
<path d="M12.4781 15.0937C11.6147 15.095 10.7596 14.9258 9.9617 14.596C9.16382 14.2662 8.43886 13.7821 7.82836 13.1716C7.21787 12.5611 6.73384 11.8362 6.40401 11.0383C6.07418 10.2404 5.90503 9.38529 5.90626 8.52192C5.90821 7.91421 6.15112 7.33209 6.58172 6.90325C7.01231 6.4744 7.59541 6.23386 8.20313 6.23438V6.23438C8.3028 6.23438 8.40071 6.26073 8.48692 6.31076C8.57313 6.36079 8.64459 6.43272 8.69404 6.51927L9.65307 8.19757C9.71091 8.29878 9.74074 8.41357 9.7395 8.53014C9.73826 8.64671 9.706 8.76084 9.64602 8.8608L8.87582 10.1445C9.27207 11.0238 9.97619 11.7279 10.8555 12.1242V12.1242L12.1392 11.354C12.2392 11.294 12.3533 11.2617 12.4699 11.2605C12.5864 11.2593 12.7012 11.2891 12.8024 11.3469L14.4807 12.306C14.5673 12.3554 14.6392 12.4269 14.6892 12.5131C14.7393 12.5993 14.7656 12.6972 14.7656 12.7969V12.7969C14.7639 13.4039 14.5226 13.9857 14.0943 14.4158C13.6659 14.8459 13.0851 15.0895 12.4781 15.0937V15.0937Z" stroke="white" stroke-width="1.3125" stroke-linecap="round" stroke-linejoin="round"/>
</svg>
