<svg width="188" height="149" viewBox="0 0 188 149" fill="none" xmlns="http://www.w3.org/2000/svg">
<path fill-rule="evenodd" clip-rule="evenodd" d="M113.5 147C153.541 147 186 114.541 186 74.5C186 34.4594 153.541 2 113.5 2C73.6262 2 41.2706 34.1895 41.0017 74H63.5858L58.9289 69.3431C58.5384 68.9526 58.5384 68.3195 58.9289 67.9289C59.3195 67.5384 59.9526 67.5384 60.3431 67.9289L66.7071 74.2929C67.0976 74.6834 67.0976 75.3166 66.7071 75.7071L60.3431 82.0711C59.9526 82.4616 59.3195 82.4616 58.9289 82.0711C58.5384 81.6805 58.5384 81.0474 58.9289 80.6569L63.5858 76H41.0152C41.8138 115.348 73.9606 147 113.5 147ZM113.5 0C72.5216 0 39.2706 33.0849 39.0016 74H-6V76H39.0148C39.8137 116.453 72.856 149 113.5 149C154.645 149 188 115.645 188 74.5C188 33.3548 154.645 0 113.5 0ZM94.6719 66.5957H91.5996L81.8564 74.3301V66.5957H79.7188V82H81.8564V76.7686L84.7676 74.4697L91.9971 82H94.7793L86.3359 73.2129L94.6719 66.5957ZM99.0547 71.4404C98.4889 71.598 97.9876 71.777 97.5508 71.9775L98.3672 73.4707C98.8184 73.2988 99.3018 73.1484 99.8174 73.0195C100.261 72.9049 100.766 72.8011 101.332 72.708C101.905 72.6077 102.507 72.5576 103.137 72.5576C103.932 72.5576 104.558 72.6113 105.017 72.7188C105.475 72.8262 105.819 72.9837 106.048 73.1914C106.284 73.3919 106.435 73.639 106.499 73.9326C106.563 74.2262 106.599 74.5628 106.606 74.9424C105.79 74.835 104.977 74.7669 104.168 74.7383C103.359 74.7096 102.582 74.7311 101.837 74.8027C101.099 74.8672 100.412 74.9889 99.7744 75.168C99.137 75.347 98.582 75.5905 98.1094 75.8984C97.6439 76.2064 97.2751 76.5859 97.0029 77.0371C96.738 77.4883 96.6055 78.0182 96.6055 78.627C96.6055 79.8444 97.0602 80.7467 97.9697 81.334C98.8792 81.9212 100.186 82.2148 101.891 82.2148C102.592 82.2148 103.205 82.1504 103.728 82.0215C104.25 81.8997 104.701 81.735 105.081 81.5273C105.461 81.3125 105.779 81.0726 106.037 80.8076C106.302 80.5355 106.524 80.2562 106.703 79.9697V82H108.733V75.3398C108.733 74.9961 108.715 74.6488 108.68 74.2979C108.651 73.9398 108.576 73.596 108.454 73.2666C108.332 72.9372 108.15 72.6292 107.906 72.3428C107.67 72.0563 107.344 71.8057 106.929 71.5908C106.513 71.376 105.998 71.2077 105.382 71.0859C104.766 70.957 104.018 70.8926 103.137 70.8926C102.27 70.8926 101.493 70.9499 100.806 71.0645C100.125 71.179 99.5417 71.3044 99.0547 71.4404ZM98.8721 79.4004C98.7646 79.1641 98.7109 78.9062 98.7109 78.627C98.7109 78.2188 98.8255 77.8714 99.0547 77.585C99.2839 77.2913 99.5954 77.0514 99.9893 76.8652C100.383 76.6719 100.841 76.5251 101.364 76.4248C101.887 76.3174 102.446 76.2494 103.04 76.2207C103.634 76.1849 104.243 76.1813 104.866 76.21C105.496 76.2314 106.109 76.2744 106.703 76.3389V77.1982C106.703 77.5563 106.617 77.9323 106.445 78.3262C106.281 78.7201 106.008 79.0817 105.629 79.4111C105.257 79.7406 104.773 80.0127 104.179 80.2275C103.584 80.4424 102.857 80.5498 101.998 80.5498C101.382 80.5498 100.863 80.5033 100.44 80.4102C100.025 80.3099 99.6885 80.1774 99.4307 80.0127C99.1729 79.8408 98.9867 79.6367 98.8721 79.4004ZM123.128 71.1074H111.107V72.7725H116.103V82H118.133V72.7725H123.128V71.1074ZM127.521 71.4404C126.956 71.598 126.454 71.777 126.018 71.9775L126.834 73.4707C127.285 73.2988 127.769 73.1484 128.284 73.0195C128.728 72.9049 129.233 72.8011 129.799 72.708C130.372 72.6077 130.973 72.5576 131.604 72.5576C132.398 72.5576 133.025 72.6113 133.483 72.7188C133.942 72.8262 134.285 72.9837 134.515 73.1914C134.751 73.3919 134.901 73.639 134.966 73.9326C135.03 74.2262 135.066 74.5628 135.073 74.9424C134.257 74.835 133.444 74.7669 132.635 74.7383C131.826 74.7096 131.049 74.7311 130.304 74.8027C129.566 74.8672 128.879 74.9889 128.241 75.168C127.604 75.347 127.049 75.5905 126.576 75.8984C126.111 76.2064 125.742 76.5859 125.47 77.0371C125.205 77.4883 125.072 78.0182 125.072 78.627C125.072 79.8444 125.527 80.7467 126.437 81.334C127.346 81.9212 128.653 82.2148 130.357 82.2148C131.059 82.2148 131.672 82.1504 132.194 82.0215C132.717 81.8997 133.168 81.735 133.548 81.5273C133.927 81.3125 134.246 81.0726 134.504 80.8076C134.769 80.5355 134.991 80.2562 135.17 79.9697V82H137.2V75.3398C137.2 74.9961 137.182 74.6488 137.146 74.2979C137.118 73.9398 137.043 73.596 136.921 73.2666C136.799 72.9372 136.617 72.6292 136.373 72.3428C136.137 72.0563 135.811 71.8057 135.396 71.5908C134.98 71.376 134.465 71.2077 133.849 71.0859C133.233 70.957 132.484 70.8926 131.604 70.8926C130.737 70.8926 129.96 70.9499 129.272 71.0645C128.592 71.179 128.008 71.3044 127.521 71.4404ZM127.339 79.4004C127.231 79.1641 127.178 78.9062 127.178 78.627C127.178 78.2188 127.292 77.8714 127.521 77.585C127.751 77.2913 128.062 77.0514 128.456 76.8652C128.85 76.6719 129.308 76.5251 129.831 76.4248C130.354 76.3174 130.912 76.2494 131.507 76.2207C132.101 76.1849 132.71 76.1813 133.333 76.21C133.963 76.2314 134.576 76.2744 135.17 76.3389V77.1982C135.17 77.5563 135.084 77.9323 134.912 78.3262C134.747 78.7201 134.475 79.0817 134.096 79.4111C133.723 79.7406 133.24 80.0127 132.646 80.2275C132.051 80.4424 131.324 80.5498 130.465 80.5498C129.849 80.5498 129.33 80.5033 128.907 80.4102C128.492 80.3099 128.155 80.1774 127.897 80.0127C127.64 79.8408 127.453 79.6367 127.339 79.4004ZM152.314 82V71.1074H140.949V77.4453C140.949 78.1328 140.892 78.6735 140.777 79.0674C140.67 79.4541 140.53 79.7441 140.358 79.9375C140.187 80.1309 140 80.249 139.8 80.292C139.606 80.335 139.424 80.3493 139.252 80.335V82C139.417 82.0072 139.624 82.0143 139.875 82.0215C140.126 82.0286 140.387 82.0036 140.659 81.9463C140.938 81.8818 141.214 81.7673 141.486 81.6025C141.766 81.4378 142.016 81.1872 142.238 80.8506C142.46 80.5068 142.639 80.0592 142.775 79.5078C142.911 78.9564 142.979 78.2689 142.979 77.4453V72.7725H150.284V82H152.314ZM164.937 71.3223C164.063 71.0358 163.053 70.8926 161.907 70.8926C160.761 70.8926 159.752 71.0358 158.878 71.3223C158.004 71.6087 157.27 72.0062 156.676 72.5146C156.089 73.016 155.645 73.6139 155.344 74.3086C155.043 74.9961 154.893 75.7445 154.893 76.5537C154.893 77.363 155.043 78.1149 155.344 78.8096C155.645 79.4971 156.089 80.0951 156.676 80.6035C157.27 81.1048 158.004 81.4987 158.878 81.7852C159.752 82.0716 160.761 82.2148 161.907 82.2148C163.053 82.2148 164.063 82.0716 164.937 81.7852C165.81 81.4987 166.541 81.1048 167.128 80.6035C167.722 80.0951 168.17 79.4971 168.471 78.8096C168.771 78.1149 168.922 77.363 168.922 76.5537C168.922 75.7445 168.771 74.9961 168.471 74.3086C168.17 73.6139 167.722 73.016 167.128 72.5146C166.541 72.0062 165.81 71.6087 164.937 71.3223ZM159.619 72.8906C160.242 72.6686 161.005 72.5576 161.907 72.5576C162.81 72.5576 163.572 72.6686 164.195 72.8906C164.818 73.1126 165.323 73.4098 165.71 73.7822C166.104 74.1475 166.387 74.5736 166.559 75.0605C166.738 75.5404 166.827 76.0381 166.827 76.5537C166.827 77.0765 166.738 77.5814 166.559 78.0684C166.387 78.5482 166.104 78.9743 165.71 79.3467C165.323 79.7119 164.818 80.0055 164.195 80.2275C163.572 80.4424 162.81 80.5498 161.907 80.5498C161.005 80.5498 160.242 80.4424 159.619 80.2275C158.996 80.0055 158.488 79.7119 158.094 79.3467C157.707 78.9743 157.424 78.5482 157.245 78.0684C157.073 77.5814 156.987 77.0765 156.987 76.5537C156.987 76.0381 157.073 75.5404 157.245 75.0605C157.424 74.5736 157.707 74.1475 158.094 73.7822C158.488 73.4098 158.996 73.1126 159.619 72.8906ZM182.403 72.7725V71.1074H171.5V82H173.53V72.7725H182.403Z" fill="#202020"/>
</svg>
