<svg width="109" height="36" viewBox="0 0 109 36" fill="none" xmlns="http://www.w3.org/2000/svg">
<path d="M47.5073 7.68164C47.3149 7.68164 47.1226 7.81184 46.9303 8.00714C46.802 8.20244 46.6738 8.46283 46.6738 8.78833C46.6738 9.11383 46.7379 9.37423 46.9303 9.56952C47.1226 9.76482 47.3149 9.89502 47.5073 9.89502C47.6996 9.89502 47.8919 9.76482 48.0842 9.56952C48.2125 9.37423 48.3407 9.11383 48.3407 8.78833C48.3407 8.46283 48.2766 8.20244 48.0842 8.00714C47.956 7.74674 47.7637 7.68164 47.5073 7.68164Z" fill="#858586"/>
<path d="M51.9303 7.68164C51.8662 7.68164 51.802 7.68164 51.6738 7.68164C51.6738 8.00714 51.6738 8.33264 51.6738 8.65813C51.6738 9.04873 51.6738 9.37423 51.6738 9.76482C51.802 9.76482 51.8662 9.76482 51.9944 9.76482C52.3149 9.76482 52.5714 9.63462 52.6996 9.43933C52.8278 9.24403 52.956 8.98363 52.956 8.65813C52.956 8.33264 52.8919 8.13734 52.6996 7.94204C52.5073 7.81184 52.2508 7.68164 51.9303 7.68164Z" fill="#858586"/>
<path d="M59.3694 7.68164C59.2412 7.68164 59.177 7.68164 59.0488 7.74674C59.0488 8.00714 59.0488 8.39773 59.0488 8.72323C59.1129 8.72323 59.1129 8.72323 59.177 8.72323C59.754 8.72323 60.0105 8.52793 60.0105 8.20244C60.0105 7.81184 59.8181 7.68164 59.3694 7.68164Z" fill="#858586"/>
<path d="M56.4843 7.68164C56.4843 7.74674 56.3561 8.20244 56.0996 8.98363H56.9331C56.6125 8.13734 56.4843 7.74674 56.4843 7.68164Z" fill="#858586"/>
<path d="M35.0038 7.68164C35.0038 7.74674 34.8756 8.20244 34.6191 8.98363H35.4526C35.132 8.13734 35.0038 7.74674 35.0038 7.68164Z" fill="#858586"/>
<path d="M44.3007 7.68164C44.1725 7.68164 44.0442 7.68164 43.916 7.68164C43.916 7.94204 43.916 8.20244 43.916 8.59303C43.9801 8.59303 44.0442 8.59303 44.1084 8.59303C44.6212 8.59303 44.8136 8.39773 44.8136 8.07224C44.8777 7.81184 44.6854 7.68164 44.3007 7.68164Z" fill="#858586"/>
<path d="M41.0318 7.68164C40.9677 7.68164 40.9036 7.68164 40.7754 7.68164C40.7754 8.00714 40.7754 8.33264 40.7754 8.65813C40.7754 9.04873 40.7754 9.37423 40.7754 9.76482C40.9036 9.76482 40.9677 9.76482 41.0959 9.76482C41.4165 9.76482 41.6729 9.63462 41.8011 9.43933C41.9294 9.24403 42.0576 8.98363 42.0576 8.65813C42.0576 8.33264 41.9935 8.13734 41.8011 7.94204C41.6088 7.81184 41.3524 7.68164 41.0318 7.68164Z" fill="#858586"/>
<path d="M66.2944 7.68164C66.102 7.68164 65.9097 7.81184 65.7174 8.00714C65.5892 8.20244 65.4609 8.46283 65.4609 8.78833C65.4609 9.11383 65.525 9.37423 65.7174 9.56952C65.9097 9.76482 66.102 9.89502 66.2944 9.89502C66.4867 9.89502 66.679 9.76482 66.8713 9.56952C66.9996 9.37423 67.1278 9.11383 67.1278 8.78833C67.1278 8.46283 67.0637 8.20244 66.8713 8.00714C66.7431 7.74674 66.5508 7.68164 66.2944 7.68164Z" fill="#858586"/>
<path d="M62.0627 7.68164C61.9345 7.68164 61.8704 7.68164 61.7422 7.74674C61.7422 8.00714 61.7422 8.39773 61.7422 8.72323C61.8063 8.72323 61.8063 8.72323 61.8704 8.72323C62.4474 8.72323 62.7039 8.52793 62.7039 8.20244C62.7039 7.81184 62.5115 7.68164 62.0627 7.68164Z" fill="#858586"/>
<path d="M56.1636 18.4883C55.5223 18.4883 54.9452 18.7487 54.4964 19.2044C54.0475 19.6601 53.791 20.3111 53.791 21.0923C53.791 21.8735 54.0475 22.5244 54.4964 22.9801C54.9452 23.4358 55.5223 23.6962 56.1636 23.6962C56.8048 23.6962 57.3819 23.4358 57.8308 22.9801C58.2796 22.5244 58.5361 21.8735 58.5361 21.0923C58.5361 20.3111 58.2796 19.6601 57.8308 19.2044C57.3178 18.7487 56.8048 18.4883 56.1636 18.4883Z" fill="#858586"/>
<path d="M48.2768 18.4883C47.6356 18.4883 47.0585 18.7487 46.6096 19.2044C46.1608 19.6601 45.9043 20.3111 45.9043 21.0923C45.9043 21.8735 46.1608 22.5244 46.6096 22.9801C47.0585 23.4358 47.6356 23.6962 48.2768 23.6962C48.9181 23.6962 49.4952 23.4358 49.944 22.9801C50.3929 22.5244 50.6494 21.8735 50.6494 21.0923C50.6494 20.3111 50.3929 19.6601 49.944 19.2044C49.4952 18.7487 48.9181 18.4883 48.2768 18.4883Z" fill="#858586"/>
<path d="M85.5959 15.4282H83.3516V19.1389H85.5959C86.173 19.1389 86.6218 18.9436 86.9425 18.553C87.2631 18.1624 87.4554 17.7067 87.4554 17.251C87.4554 16.7953 87.2631 16.3396 86.9425 15.949C86.6218 15.6235 86.173 15.4282 85.5959 15.4282Z" fill="#858586"/>
<path d="M93.8039 21.6134C93.4833 21.8738 93.291 22.2644 93.291 22.655C93.291 22.9805 93.4192 23.306 93.7398 23.5013C94.0603 23.6966 94.3809 23.8268 94.7655 23.8268C95.3425 23.8268 95.8554 23.6315 96.3042 23.1758C96.753 22.7852 97.0094 22.2644 97.0094 21.6785C96.6248 21.353 96.0478 21.2228 95.2784 21.2228C94.6373 21.1577 94.1244 21.2879 93.8039 21.6134Z" fill="#858586"/>
<path d="M74.5012 18.4883C73.9882 18.4883 73.5393 18.6185 73.2187 18.944C72.834 19.2695 72.5775 19.6601 72.4492 20.246H76.6172C76.6172 19.8554 76.4249 19.3997 76.0401 19.0742C75.6554 18.6836 75.1424 18.4883 74.5012 18.4883Z" fill="#858586"/>
<path d="M63.9861 18.4883C63.3449 18.4883 62.8319 18.7487 62.3831 19.2044C61.9342 19.6601 61.6777 20.3111 61.6777 21.0923C61.6777 21.8735 61.9342 22.5244 62.3831 22.9801C62.8319 23.4358 63.3449 23.6962 63.9861 23.6962C64.6274 23.6962 65.1404 23.4358 65.5892 22.9801C66.0381 22.5244 66.2304 21.8734 66.2304 21.0272C66.2304 20.246 66.0381 19.595 65.5892 19.0742C65.1404 18.7487 64.6274 18.4883 63.9861 18.4883Z" fill="#858586"/>
<path d="M104.192 0H5.44204C2.813 0 0.632812 2.14828 0.632812 4.88246V31.1175C0.632812 33.7866 2.74887 36 5.44204 36H104.192C106.821 36 109.001 33.8517 109.001 31.1175V4.88246C109.001 2.21338 106.821 0 104.192 0ZM61.165 7.22604H61.5497C61.6139 7.22604 61.7421 7.22604 61.8703 7.22604C61.9986 7.22604 62.191 7.22604 62.2551 7.22604C62.5116 7.22604 62.7681 7.29114 62.9604 7.42134C63.1528 7.55154 63.2811 7.74684 63.2811 8.00723C63.2811 8.39783 63.1528 8.65823 62.8963 8.85353C62.6398 9.04883 62.3192 9.11392 61.9345 9.11392C61.8704 9.11392 61.8062 9.11392 61.8062 9.11392C61.8062 9.37432 61.8062 9.76492 61.8062 10.2857H61.165C61.165 9.83002 61.165 9.30922 61.165 8.72333C61.165 8.13743 61.165 7.61664 61.165 7.22604ZM55.5863 8.78843C55.971 7.87703 56.0993 7.35624 56.0993 7.29114H56.9329C56.9329 7.35624 57.1252 7.87703 57.4459 8.78843C57.7665 9.69982 57.9588 10.2206 57.9588 10.2857H57.2535C57.2535 10.1555 57.1894 9.89512 57.0611 9.43942H56.0351C55.9069 9.89512 55.8428 10.2206 55.8428 10.2857H55.1374C55.0733 10.1555 55.2016 9.69982 55.5863 8.78843ZM51.0336 7.22604H51.4183C51.4824 7.22604 51.6107 7.22604 51.7389 7.22604C51.8671 7.22604 51.9313 7.22604 51.9954 7.22604C52.5725 7.22604 52.9572 7.35624 53.2137 7.61664C53.4702 7.87703 53.5985 8.20253 53.5985 8.59313C53.5985 9.04883 53.4702 9.43942 53.2137 9.76492C52.9572 10.0904 52.5725 10.2857 52.0595 10.2857C51.803 10.2857 51.5465 10.2857 51.1618 10.2857C51.1618 9.83002 51.1618 9.30922 51.1618 8.72333C51.0977 8.13743 51.0977 7.61664 51.0336 7.22604ZM49.6228 7.22604H50.2641C50.2641 7.61664 50.2641 8.07233 50.2641 8.65823C50.2641 9.24412 50.2641 9.76492 50.2641 10.2206H49.6228C49.6228 9.76492 49.6228 9.24412 49.6228 8.65823C49.6228 8.13743 49.6228 7.61664 49.6228 7.22604ZM46.5449 7.61664C46.8014 7.29114 47.1862 7.16094 47.5709 7.16094C47.9556 7.16094 48.2763 7.29114 48.5969 7.61664C48.8534 7.87703 48.9816 8.26763 48.9816 8.72333C48.9816 9.17902 48.8534 9.56962 48.5327 9.89512C48.2763 10.2206 47.8915 10.3508 47.5068 10.3508C47.122 10.3508 46.8014 10.2206 46.4808 9.89512C46.2243 9.63472 46.0961 9.24412 46.0961 8.78843C46.0961 8.33273 46.2243 7.94213 46.5449 7.61664ZM40.1967 7.22604H40.5815C40.6456 7.22604 40.7739 7.22604 40.9021 7.22604C41.0304 7.22604 41.0945 7.22604 41.1586 7.22604C41.7357 7.22604 42.1204 7.35624 42.3769 7.61664C42.6334 7.87703 42.7617 8.20253 42.7617 8.59313C42.7617 9.04883 42.6334 9.43942 42.3769 9.76492C42.1204 10.0904 41.7357 10.2857 41.2227 10.2857C40.9662 10.2857 40.7097 10.2857 40.325 10.2857C40.325 9.83002 40.325 9.30922 40.325 8.72333C40.1967 8.13743 40.1967 7.61664 40.1967 7.22604ZM36.9265 7.22604H37.6318C37.6318 7.29114 37.8242 7.61664 38.2089 8.20253C38.5937 8.78843 38.8502 9.24412 38.9143 9.43942H38.9784C38.9143 9.11392 38.9143 8.78843 38.9143 8.52803C38.9143 8.13743 38.9143 7.68174 38.9143 7.22604H39.4914C39.4914 7.61664 39.4914 8.07233 39.4914 8.65823C39.4914 9.24412 39.4914 9.76492 39.4914 10.2206H38.9143C38.9143 10.1555 38.7219 9.83002 38.2731 9.24412C37.8242 8.59313 37.5677 8.20253 37.5036 7.94213H37.4395C37.5036 8.26763 37.5036 8.59313 37.5036 8.85353C37.5036 9.24412 37.5036 9.69982 37.5036 10.2206H36.9265C36.9265 9.76492 36.9906 9.24412 36.9906 8.65823C36.9906 8.13743 36.9906 7.61664 36.9265 7.22604ZM34.1051 8.78843C34.4898 7.87703 34.618 7.35624 34.618 7.29114H35.4516C35.4516 7.35624 35.644 7.87703 35.9646 8.78843C36.2852 9.69982 36.4776 10.2206 36.4776 10.2857H35.7723C35.7723 10.1555 35.7081 9.89512 35.5799 9.43942H34.5539C34.4257 9.89512 34.3616 10.2206 34.3616 10.2857H33.6562C33.5921 10.1555 33.7203 9.69982 34.1051 8.78843ZM10.123 7.68174C14.7399 10.2857 19.3568 12.8897 23.9095 15.5588C24.1019 15.689 24.1019 15.7541 23.9736 15.8843C22.9476 16.9259 21.9217 17.9675 20.8957 19.009C20.7675 19.1392 20.7033 19.2043 20.5751 19.009C16.9201 15.2333 13.2651 11.4575 9.54592 7.61664C9.54592 7.61664 9.4818 7.55154 9.41767 7.48644C9.73829 7.48644 9.93066 7.61664 10.123 7.68174ZM8.71232 30.792C8.32759 30.4665 8.19934 30.076 8.19934 29.6203C8.19934 27.6022 8.19934 25.5841 8.19934 23.566C8.19934 22.1338 8.19934 20.7016 8.19934 19.2694C8.19934 15.8843 8.19934 12.434 8.19934 9.04882C8.19934 8.65823 8.26345 8.26763 8.58407 7.94213C8.71232 7.81193 8.77644 7.81193 8.90469 7.94213C11.149 10.2857 13.4574 12.6293 15.7017 14.9729C17.1766 16.4702 18.6514 18.0326 20.1262 19.5298C20.2545 19.66 20.2545 19.7251 20.1262 19.9204C16.5353 23.566 12.9444 27.2116 9.35355 30.8571C9.03294 30.9873 8.90469 30.9873 8.71232 30.792ZM23.5247 23.3707C19.2285 25.7794 14.9323 28.123 10.636 30.5316C10.5719 30.5967 10.5078 30.6618 10.4436 30.6618C13.778 27.2116 17.1124 23.8264 20.4468 20.3761C20.6392 20.1808 20.7675 20.1808 20.9598 20.3761C21.7934 21.2875 22.6911 22.1338 23.5247 23.0452C23.7171 23.1754 23.7171 23.2405 23.5247 23.3707ZM29.1035 20.2459C28.9111 20.3761 28.6546 20.5063 28.4622 20.6365C27.1798 21.3526 25.8332 22.0687 24.5507 22.8499C24.3584 22.9801 24.2942 22.915 24.1019 22.7848C23.2041 21.8083 22.2423 20.8318 21.3446 19.9204C21.2163 19.7902 21.2163 19.7251 21.3446 19.5949C22.4347 18.4882 23.5247 17.3816 24.6148 16.34C24.7431 16.2098 24.8072 16.2098 24.9996 16.2749C26.282 16.991 27.5645 17.7071 28.847 18.4882C29.2317 18.6835 29.5523 19.009 29.5523 19.4647C29.5523 19.7251 29.3599 19.9855 29.1035 20.2459ZM42.6976 23.4358C41.7357 24.4774 40.3891 24.9982 38.8502 24.9982C37.3112 24.9982 36.0288 24.4774 35.0028 23.3707C33.9127 22.3291 33.3997 20.962 33.3997 19.3996C33.3997 17.8373 33.9127 16.4702 35.0028 15.4286C36.0929 14.387 37.3753 13.8011 38.8502 13.8011C39.6196 13.8011 40.325 13.9313 41.0303 14.2568C41.7357 14.5823 42.2487 14.9729 42.6976 15.4286L41.7998 16.34C41.0945 15.4937 40.1326 15.1031 38.9143 15.1031C37.8242 15.1031 36.8624 15.4937 36.0287 16.2749C35.1951 17.0561 34.8104 18.0977 34.8104 19.3345C34.8104 20.5714 35.1951 21.613 36.0287 22.3942C36.8624 23.1754 37.8242 23.566 38.9143 23.566C40.0685 23.566 41.0945 23.1754 41.864 22.3942C42.3769 21.8734 42.6975 21.1573 42.7617 20.2459H38.9143V18.9439H44.0441C44.1083 19.2043 44.1083 19.4647 44.1083 19.7251C44.0441 21.3526 43.5953 22.5895 42.6976 23.4358ZM43.9159 9.04882C43.9159 9.43942 43.9159 9.83002 43.9159 10.2206H43.2747C43.2747 9.76492 43.2747 9.24412 43.2747 8.65823C43.2747 8.07233 43.2747 7.61664 43.2747 7.22604H43.6594C43.7235 7.22604 43.7876 7.22604 43.9159 7.22604C44.0441 7.22604 44.1724 7.22604 44.3006 7.22604C45.006 7.22604 45.3266 7.48644 45.3266 7.94213C45.3266 8.33273 45.1342 8.59313 44.7495 8.72333V8.78843C44.8777 8.85353 45.006 8.98373 45.1342 9.17902C45.2625 9.37432 45.3907 9.76492 45.5831 10.2857H44.8777C44.6854 9.76492 44.5571 9.37432 44.493 9.24412C44.4289 9.11392 44.2365 9.04882 44.0441 9.04882C44.1083 9.04882 44.0441 9.04882 43.9159 9.04882ZM50.9694 23.8915C50.2641 24.6076 49.3663 24.9982 48.3404 24.9982C47.2503 24.9982 46.3526 24.6076 45.7113 23.8915C45.006 23.1754 44.6854 22.1989 44.6854 21.0922C44.6854 19.9855 45.006 19.0741 45.7113 18.2929C46.4167 17.5769 47.3144 17.1863 48.3404 17.1863C49.4305 17.1863 50.3282 17.5769 50.9694 18.2929C51.6748 19.009 51.9954 19.9855 51.9954 21.0922C51.9954 22.264 51.6748 23.1754 50.9694 23.8915ZM58.7924 23.8915C58.0871 24.6076 57.1894 24.9982 56.1634 24.9982C55.0733 24.9982 54.1756 24.6076 53.5344 23.8915C52.829 23.1754 52.5084 22.1989 52.5084 21.0922C52.5084 19.9855 52.829 19.0741 53.5344 18.2929C54.2397 17.5769 55.1374 17.1863 56.1634 17.1863C57.2535 17.1863 58.1512 17.5769 58.7924 18.2929C59.4978 19.009 59.8184 19.9855 59.8184 21.0922C59.8825 22.264 59.4978 23.1754 58.7924 23.8915ZM59.1772 9.11392C59.113 9.11392 59.0489 9.11392 59.0489 9.11392C59.0489 9.37432 59.0489 9.76492 59.0489 10.2857H58.4077C58.4077 9.83002 58.4077 9.30922 58.4077 8.72333C58.4077 8.13743 58.4077 7.68174 58.4077 7.29114H58.7924C58.8566 7.29114 58.9848 7.29114 59.1131 7.29114C59.2413 7.29114 59.4337 7.29114 59.4978 7.29114C59.7543 7.29114 60.0108 7.35624 60.2031 7.48644C60.3955 7.61664 60.5238 7.81193 60.5238 8.07233C60.5238 8.46293 60.3955 8.72333 60.139 8.91863C59.9467 8.98373 59.5619 9.11392 59.1772 9.11392ZM67.5773 24.4123C67.5773 25.6492 67.1926 26.6257 66.4872 27.2767C65.7819 27.9277 64.8841 28.2532 63.8582 28.2532C63.0246 28.2532 62.3192 28.0579 61.7421 27.6022C61.2291 27.1465 60.8444 26.6908 60.5879 26.1049L61.8062 25.5841C61.9345 25.9747 62.191 26.3002 62.5757 26.5606C62.9604 26.821 63.3452 26.9512 63.8582 26.9512C64.6276 26.9512 65.2047 26.7559 65.5895 26.3002C66.0383 25.8445 66.2307 25.2586 66.2307 24.4774V23.7613H66.1666C65.9101 24.0868 65.5895 24.4123 65.1406 24.6727C64.6918 24.9331 64.2429 25.0633 63.6658 25.0633C62.7039 25.0633 61.9345 24.6727 61.2291 23.9566C60.5238 23.2405 60.2031 22.264 60.2031 21.1573C60.2031 20.0506 60.5238 19.1392 61.2291 18.358C61.9345 17.642 62.7039 17.2514 63.6658 17.2514C64.1788 17.2514 64.6918 17.3816 65.1406 17.5769C65.5895 17.8373 65.9101 18.0977 66.1666 18.4882H66.2307V17.4467H67.5132V24.4123H67.5773ZM67.3849 9.83002C67.1284 10.1555 66.7437 10.2857 66.359 10.2857C65.9742 10.2857 65.6536 10.1555 65.333 9.83002C65.0765 9.56962 64.9482 9.17902 64.9482 8.72333C64.9482 8.26763 65.0765 7.87703 65.3971 7.55154C65.6536 7.22604 66.0384 7.09584 66.4231 7.09584C66.8078 7.09584 67.1284 7.22604 67.4491 7.55154C67.7056 7.81194 67.8338 8.20253 67.8338 8.65823C67.7697 9.17902 67.6414 9.56962 67.3849 9.83002ZM70.2064 24.8029H68.8598V14.1266H70.2064V24.8029ZM70.8476 10.2206H70.2705C70.2705 10.1555 70.0781 9.83002 69.6292 9.24412C69.1804 8.59313 68.9239 8.20253 68.8598 7.94213H68.9239C68.988 8.26763 68.988 8.59313 68.988 8.85353C68.988 9.24412 68.988 9.69982 68.988 10.2206H68.4109C68.4109 9.76492 68.475 9.24412 68.475 8.65823C68.475 8.07233 68.475 7.61664 68.4109 7.22604H69.1162C69.1162 7.29114 69.3086 7.61664 69.6934 8.20253C70.0781 8.78843 70.3346 9.24412 70.3987 9.43942H70.4628C70.3987 9.11392 70.3987 8.78843 70.3987 8.52803C70.3987 8.13743 70.3987 7.68174 70.3987 7.22604H70.9758C70.9758 7.61664 70.9758 8.07233 70.9758 8.65823C70.8476 9.24412 70.8476 9.76492 70.8476 10.2206ZM78.0294 21.3526H72.3224C72.3865 22.0687 72.5789 22.6546 73.0278 23.1103C73.4766 23.566 73.9896 23.7613 74.5667 23.7613C75.5286 23.7613 76.1698 23.3707 76.5545 22.5244L77.7729 23.0452C77.5164 23.6311 77.1316 24.0868 76.6187 24.4774C76.1057 24.868 75.4003 25.0633 74.6308 25.0633C73.5407 25.0633 72.643 24.6727 72.0018 23.9566C71.2964 23.2405 70.9758 22.264 70.9758 21.1573C70.9758 20.1157 71.2964 19.2043 71.9377 18.4231C72.5789 17.642 73.4125 17.2514 74.5026 17.2514C75.5927 17.2514 76.4263 17.5769 77.0675 18.2929C77.7088 19.009 78.0294 19.9204 78.0294 21.1573V21.3526ZM87.9043 19.5298C87.2631 20.1157 86.4936 20.4412 85.5959 20.4412H83.3516V24.7378H82.005V14.1266H85.5959C86.4936 14.1266 87.2631 14.4521 87.9043 15.038C88.5456 15.6239 88.8662 16.4051 88.8662 17.3165C88.8662 18.2278 88.5456 18.9439 87.9043 19.5298ZM91.1105 24.8029H89.7639V14.1266H91.1105V24.8029ZM98.2923 24.8029H97.0098V23.7613H96.9457C96.4327 24.6076 95.5991 24.9982 94.5731 24.9982C93.8036 24.9982 93.1624 24.8029 92.6494 24.3472C92.1364 23.8915 91.8799 23.3056 91.8799 22.5895C91.8799 21.8083 92.2006 21.1573 92.7777 20.7016C93.3548 20.2459 94.1243 20.0506 95.022 20.0506C95.7915 20.0506 96.4968 20.1808 96.9457 20.5063V20.311C96.9457 19.7902 96.7533 19.3345 96.4327 19.009C96.0479 18.6835 95.5991 18.5533 95.0861 18.5533C94.7014 18.5533 94.3166 18.6184 93.996 18.8137C93.6754 19.009 93.483 19.2694 93.3548 19.5949L92.1365 19.0741C92.3288 18.6184 92.6494 18.2278 93.0983 17.8373C93.6113 17.4467 94.2525 17.2514 95.022 17.2514C95.9197 17.2514 96.6892 17.5118 97.3304 18.0976C97.9075 18.6184 98.2281 19.3996 98.2281 20.4412V24.8029H98.2923ZM101.242 27.9928H99.8312L101.498 24.2821L98.5488 17.4467H100.024L102.14 22.7197L104.256 17.4467H105.731L101.242 27.9928Z" fill="#858586"/>
</svg>
