<svg width="215" height="46" viewBox="0 0 215 46" fill="none" xmlns="http://www.w3.org/2000/svg">
<path d="M21.2783 41.0547C14.9678 41.0547 10.2393 40.0615 7.09277 38.0752C3.94629 36.0713 2.37305 32.9951 2.37305 28.8467C2.37305 26.667 2.8916 24.874 3.92871 23.4678C4.9834 22.0439 6.38086 20.9541 8.12109 20.1982C7.41797 19.917 6.76758 19.5215 6.16992 19.0117C5.57227 18.502 5.05371 17.9307 4.61426 17.2979C4.19238 16.6475 3.8584 15.9531 3.6123 15.2148C3.36621 14.459 3.24316 13.6943 3.24316 12.9209C3.24316 11.2334 3.57715 9.66895 4.24512 8.22754C4.93066 6.78613 6.00293 5.54687 7.46191 4.50977C8.9209 3.45508 10.7842 2.62891 13.0518 2.03125C15.3369 1.43359 18.0791 1.13477 21.2783 1.13477C24.4775 1.13477 27.2109 1.43359 29.4785 2.03125C31.7637 2.62891 33.6357 3.45508 35.0947 4.50977C36.5537 5.54687 37.6172 6.78613 38.2852 8.22754C38.9707 9.66895 39.3135 11.2334 39.3135 12.9209C39.3135 13.6943 39.1904 14.459 38.9443 15.2148C38.6982 15.9531 38.3555 16.6475 37.916 17.2979C37.4766 17.9307 36.958 18.502 36.3604 19.0117C35.7803 19.5215 35.1387 19.917 34.4355 20.1982C36.1758 20.9541 37.5645 22.0439 38.6016 23.4678C39.6562 24.874 40.1836 26.667 40.1836 28.8467C40.1836 32.9951 38.6104 36.0713 35.4639 38.0752C32.3174 40.0615 27.5889 41.0547 21.2783 41.0547ZM21.2783 33.4346C23.0713 33.4346 24.6094 33.3379 25.8926 33.1445C27.1758 32.9512 28.2217 32.6611 29.0303 32.2744C29.8564 31.8877 30.4541 31.4131 30.8232 30.8506C31.21 30.2705 31.4033 29.6025 31.4033 28.8467C31.4033 28.0908 31.21 27.4316 30.8232 26.8691C30.4541 26.2891 29.8564 25.8057 29.0303 25.4189C28.2217 25.0322 27.1758 24.7422 25.8926 24.5488C24.6094 24.3555 23.0713 24.2588 21.2783 24.2588C19.4854 24.2588 17.9473 24.3555 16.6641 24.5488C15.3809 24.7422 14.3262 25.0322 13.5 25.4189C12.6914 25.8057 12.0938 26.2891 11.707 26.8691C11.3379 27.4316 11.1533 28.0908 11.1533 28.8467C11.1533 29.6025 11.3379 30.2705 11.707 30.8506C12.0938 31.4131 12.6914 31.8877 13.5 32.2744C14.3262 32.6611 15.3809 32.9512 16.6641 33.1445C17.9473 33.3379 19.4854 33.4346 21.2783 33.4346ZM30.5332 12.9209C30.5332 12.3232 30.3574 11.7695 30.0059 11.2598C29.6719 10.75 29.127 10.3105 28.3711 9.94141C27.6328 9.57227 26.6748 9.28223 25.4971 9.07129C24.3369 8.86035 22.9307 8.75488 21.2783 8.75488C19.626 8.75488 18.2109 8.86035 17.0332 9.07129C15.873 9.28223 14.915 9.57227 14.1592 9.94141C13.4209 10.3105 12.876 10.75 12.5244 11.2598C12.1904 11.7695 12.0234 12.3232 12.0234 12.9209C12.0234 13.5361 12.1904 14.0986 12.5244 14.6084C12.876 15.1182 13.4209 15.5576 14.1592 15.9268C14.915 16.2959 15.873 16.5859 17.0332 16.7969C18.2109 16.9902 19.626 17.0869 21.2783 17.0869C22.9307 17.0869 24.3369 16.9902 25.4971 16.7969C26.6748 16.5859 27.6328 16.2959 28.3711 15.9268C29.127 15.5576 29.6719 15.1182 30.0059 14.6084C30.3574 14.0986 30.5332 13.5361 30.5332 12.9209ZM43.875 12.8418H50.8359V4.95801H59.4844V12.8418H70.2949V19.4863H59.4844V28.1875C59.4844 29.3477 59.5635 30.3145 59.7217 31.0879C59.8799 31.8438 60.1348 32.4502 60.4863 32.9072C60.8555 33.3643 61.3213 33.6895 61.8838 33.8828C62.4463 34.0586 63.1318 34.1465 63.9404 34.1465C64.6787 34.1465 65.3555 34.1025 65.9707 34.0146C66.5859 33.9268 67.1133 33.8213 67.5527 33.6982C68.0625 33.5576 68.5283 33.3994 68.9502 33.2236L71.4023 39.0771C70.875 39.4111 70.207 39.7012 69.3984 39.9473C68.7129 40.1582 67.834 40.3516 66.7617 40.5273C65.6895 40.7031 64.3975 40.791 62.8857 40.791C60.4951 40.791 58.5176 40.5098 56.9531 39.9473C55.4062 39.3848 54.1758 38.5674 53.2617 37.4951C52.3652 36.4053 51.7324 35.0869 51.3633 33.54C51.0117 31.9756 50.8359 30.1914 50.8359 28.1875V19.4863H43.875V12.8418ZM75.8584 12.8418H84.4805V40H75.8584V12.8418ZM75.6211 4.82617C75.6211 4.19336 75.7354 3.60449 75.9639 3.05957C76.21 2.51465 76.5352 2.04004 76.9395 1.63574C77.3613 1.21387 77.8447 0.888672 78.3896 0.660156C78.9346 0.414063 79.5234 0.291016 80.1562 0.291016C80.7891 0.291016 81.3779 0.414063 81.9229 0.660156C82.4678 0.888672 82.9424 1.21387 83.3467 1.63574C83.7686 2.04004 84.0938 2.51465 84.3223 3.05957C84.5684 3.60449 84.6914 4.19336 84.6914 4.82617C84.6914 5.45898 84.5684 6.04785 84.3223 6.59277C84.0938 7.1377 83.7686 7.62109 83.3467 8.04297C82.9424 8.44727 82.4678 8.77246 81.9229 9.01855C81.3779 9.24707 80.7891 9.36133 80.1562 9.36133C79.5234 9.36133 78.9346 9.24707 78.3896 9.01855C77.8447 8.77246 77.3613 8.44727 76.9395 8.04297C76.5352 7.62109 76.21 7.1377 75.9639 6.59277C75.7354 6.04785 75.6211 5.45898 75.6211 4.82617ZM90.4922 12.8418H99.1406V16.6914C99.457 15.9707 99.8613 15.3203 100.354 14.7402C100.863 14.1602 101.452 13.6768 102.12 13.29C102.788 12.8857 103.518 12.5781 104.309 12.3672C105.1 12.1562 105.943 12.0508 106.84 12.0508C108.299 12.0508 109.591 12.1826 110.716 12.4463C111.841 12.71 112.825 13.0967 113.669 13.6064C114.53 14.0986 115.269 14.6963 115.884 15.3994C116.517 16.1025 117.07 16.8848 117.545 17.7461C117.879 16.9375 118.318 16.1816 118.863 15.4785C119.426 14.7754 120.085 14.1777 120.841 13.6855C121.614 13.1758 122.484 12.7803 123.451 12.499C124.436 12.2002 125.525 12.0508 126.721 12.0508C128.9 12.0508 130.764 12.3672 132.311 13C133.857 13.6328 135.114 14.5381 136.081 15.7158C137.065 16.8936 137.777 18.3262 138.217 20.0137C138.674 21.6836 138.902 23.5645 138.902 25.6562V40H130.254V25.6562C130.254 24.6367 130.175 23.6963 130.017 22.835C129.858 21.9736 129.568 21.2441 129.146 20.6465C128.725 20.0312 128.145 19.5566 127.406 19.2227C126.686 18.8711 125.763 18.6953 124.638 18.6953C123.495 18.6953 122.563 18.8711 121.843 19.2227C121.122 19.5566 120.551 20.0312 120.129 20.6465C119.707 21.2441 119.417 21.9736 119.259 22.835C119.101 23.6963 119.021 24.6367 119.021 25.6562V40H110.373V25.6562C110.373 24.6367 110.294 23.6963 110.136 22.835C109.978 21.9736 109.688 21.2441 109.266 20.6465C108.844 20.0312 108.264 19.5566 107.525 19.2227C106.805 18.8711 105.882 18.6953 104.757 18.6953C103.614 18.6953 102.683 18.8711 101.962 19.2227C101.241 19.5566 100.67 20.0312 100.248 20.6465C99.8262 21.2441 99.5361 21.9736 99.3779 22.835C99.2197 23.6963 99.1406 24.6367 99.1406 25.6562V40H90.4922V12.8418ZM176.581 37.3369C175.632 37.9873 174.445 38.5674 173.021 39.0771C171.809 39.5166 170.279 39.9121 168.434 40.2637C166.588 40.6152 164.391 40.791 161.842 40.791C159.539 40.791 157.491 40.6064 155.698 40.2373C153.905 39.8682 152.332 39.3584 150.979 38.708C149.643 38.0576 148.509 37.2842 147.577 36.3877C146.646 35.4912 145.89 34.5156 145.31 33.4609C144.729 32.3887 144.308 31.2637 144.044 30.0859C143.78 28.8906 143.648 27.6689 143.648 26.4209C143.648 24.5049 143.991 22.6768 144.677 20.9365C145.38 19.1963 146.452 17.667 147.894 16.3486C149.353 15.0303 151.189 13.9844 153.404 13.2109C155.619 12.4375 158.256 12.0508 161.314 12.0508C164.285 12.0508 166.869 12.4551 169.066 13.2637C171.281 14.0547 173.101 15.2061 174.524 16.7178C175.966 18.2119 177.012 20.0488 177.662 22.2285C178.312 24.4082 178.576 26.8691 178.453 29.6113H152.64C152.64 29.998 152.763 30.4639 153.009 31.0088C153.255 31.5537 153.712 32.0811 154.38 32.5908C155.065 33.083 156.006 33.5137 157.201 33.8828C158.396 34.2344 159.943 34.4102 161.842 34.4102C163.406 34.4102 164.839 34.2959 166.14 34.0674C167.458 33.8389 168.609 33.584 169.594 33.3027C170.719 32.9863 171.756 32.6084 172.705 32.1689L176.581 37.3369ZM169.963 24.0215C169.963 23.7578 169.901 23.4414 169.778 23.0723C169.673 22.6855 169.488 22.29 169.225 21.8857C168.961 21.4639 168.609 21.0508 168.17 20.6465C167.748 20.2246 167.212 19.8555 166.562 19.5391C165.929 19.2051 165.173 18.9414 164.294 18.748C163.433 18.5371 162.439 18.4316 161.314 18.4316C160.172 18.4316 159.17 18.5371 158.309 18.748C157.447 18.9414 156.691 19.2051 156.041 19.5391C155.408 19.8555 154.872 20.2246 154.433 20.6465C154.011 21.0508 153.668 21.4639 153.404 21.8857C153.141 22.29 152.947 22.6855 152.824 23.0723C152.719 23.4414 152.666 23.7578 152.666 24.0215H169.963ZM208.248 20.4092C207.369 20.0928 206.385 19.8115 205.295 19.5654C204.346 19.3545 203.212 19.1611 201.894 18.9854C200.575 18.792 199.09 18.6953 197.438 18.6953C195.346 18.6953 193.843 18.8271 192.929 19.0908C192.015 19.3369 191.558 19.7852 191.558 20.4355C191.558 20.7168 191.654 20.9541 191.848 21.1475C192.041 21.3408 192.393 21.5254 192.902 21.7012C193.43 21.877 194.133 22.0615 195.012 22.2549C195.908 22.4482 197.042 22.6768 198.413 22.9404C200.962 23.4502 203.177 23.96 205.058 24.4697C206.938 24.9619 208.494 25.5596 209.725 26.2627C210.973 26.9482 211.904 27.7744 212.52 28.7412C213.135 29.6904 213.442 30.877 213.442 32.3008C213.442 33.8652 213.082 35.1924 212.361 36.2822C211.641 37.3545 210.595 38.2246 209.224 38.8926C207.87 39.5605 206.2 40.0439 204.214 40.3428C202.228 40.6416 199.969 40.791 197.438 40.791C194.607 40.791 192.19 40.624 190.187 40.29C188.2 39.9736 186.574 39.6133 185.309 39.209C183.832 38.752 182.619 38.2158 181.67 37.6006L185.572 31.958C186.416 32.3799 187.427 32.749 188.604 33.0654C189.606 33.3467 190.837 33.6016 192.296 33.8301C193.772 34.041 195.486 34.1465 197.438 34.1465C199.934 34.1465 201.779 33.9971 202.975 33.6982C204.188 33.3994 204.794 32.9336 204.794 32.3008C204.794 32.0195 204.618 31.7646 204.267 31.5361C203.933 31.3076 203.432 31.0967 202.764 30.9033C202.096 30.6924 201.278 30.4814 200.312 30.2705C199.345 30.0596 198.237 29.8311 196.989 29.585C194.317 29.04 192.076 28.4951 190.266 27.9502C188.473 27.3877 187.031 26.7637 185.941 26.0781C184.852 25.3926 184.069 24.6016 183.595 23.7051C183.138 22.791 182.909 21.7012 182.909 20.4355C182.909 17.6758 184.157 15.5928 186.653 14.1865C189.167 12.7627 192.762 12.0508 197.438 12.0508C199.916 12.0508 202.069 12.1914 203.897 12.4727C205.726 12.7539 207.255 13.0703 208.485 13.4219C209.927 13.8262 211.148 14.2744 212.15 14.7666L208.248 20.4092Z" fill="#202020"/>
</svg>
