<svg width="22" height="19" viewBox="0 0 22 19" fill="none" xmlns="http://www.w3.org/2000/svg">
<path fill-rule="evenodd" clip-rule="evenodd" d="M8.87868 2.62868C9.44129 2.06607 10.2044 1.75 11 1.75C11.7956 1.75 12.5587 2.06607 13.1213 2.62868C13.5035 3.01084 13.7719 3.48548 13.9047 4H8.09525C8.22812 3.48548 8.49652 3.01084 8.87868 2.62868ZM6.56292 4C6.71762 3.08477 7.153 2.23304 7.81802 1.56802C8.66193 0.724106 9.80653 0.25 11 0.25C12.1935 0.25 13.3381 0.724106 14.182 1.56802C14.847 2.23304 15.2824 3.08477 15.4371 4H18.5787C18.9479 4 19.304 4.13612 19.5791 4.38231C19.8542 4.6285 20.0288 4.96747 20.0695 5.33435L21.4029 17.3344C21.4262 17.544 21.405 17.7563 21.3407 17.9572C21.2764 18.1581 21.1704 18.3432 21.0297 18.5004C20.8891 18.6576 20.7168 18.7833 20.5242 18.8694C20.3316 18.9555 20.123 19 19.9121 19H2.08795C1.87699 19 1.66841 18.9555 1.47581 18.8694C1.28322 18.7833 1.11095 18.6576 0.97026 18.5004C0.829567 18.3432 0.723613 18.1581 0.659317 17.9572C0.595021 17.7562 0.57383 17.544 0.597126 17.3344L1.93046 5.33435C1.97122 4.96747 2.14584 4.6285 2.4209 4.38231C2.69596 4.13612 3.05214 4 3.42129 4H6.56292ZM14.75 5.5H7.25H3.42129L2.08795 17.5H19.9121L18.5787 5.5H14.75Z" fill="black"/>
</svg>
