<svg width="36" height="22" viewBox="0 0 36 22" fill="none" xmlns="http://www.w3.org/2000/svg">
<path fill-rule="evenodd" clip-rule="evenodd" d="M0.697754 2.18595C0.697754 1.2612 1.44742 0.511536 2.37217 0.511536H33.628C34.5527 0.511536 35.3024 1.2612 35.3024 2.18595C35.3024 3.11071 34.5527 3.86037 33.628 3.86037H2.37217C1.44742 3.86037 0.697754 3.11071 0.697754 2.18595ZM0.697754 11.1162C0.697754 10.1914 1.44742 9.44174 2.37217 9.44174H25.814C26.7388 9.44174 27.4885 10.1914 27.4885 11.1162C27.4885 12.0409 26.7388 12.7906 25.814 12.7906H2.37217C1.44742 12.7906 0.697754 12.0409 0.697754 11.1162ZM2.37217 18.3722C1.44742 18.3722 0.697754 19.1219 0.697754 20.0466C0.697754 20.9714 1.44742 21.721 2.37217 21.721H15.7675C16.6923 21.721 17.4419 20.9714 17.4419 20.0466C17.4419 19.1219 16.6923 18.3722 15.7675 18.3722H2.37217Z" fill="#858586"/>
</svg>
