<svg width="26" height="26" viewBox="0 0 26 26" fill="none" xmlns="http://www.w3.org/2000/svg">
<path fill-rule="evenodd" clip-rule="evenodd" d="M24.9086 3.53367C25.5831 2.85924 25.5831 1.76578 24.9086 1.09136C24.2342 0.416934 23.1408 0.416934 22.4663 1.09136L13 10.5577L3.53364 1.09136C2.85921 0.416934 1.76575 0.416934 1.09133 1.09136C0.416904 1.76578 0.416904 2.85924 1.09133 3.53367L10.5577 13L1.09133 22.4664C0.416904 23.1408 0.416904 24.2342 1.09133 24.9087C1.76575 25.5831 2.85921 25.5831 3.53364 24.9087L13 15.4423L22.4663 24.9087C23.1408 25.5831 24.2342 25.5831 24.9086 24.9087C25.5831 24.2342 25.5831 23.1408 24.9086 22.4664L15.4423 13L24.9086 3.53367Z" fill="#CCCCCC"/>
</svg>
