<svg width="19" height="18" viewBox="0 0 19 18" fill="none" xmlns="http://www.w3.org/2000/svg">
<path fill-rule="evenodd" clip-rule="evenodd" d="M10.25 0C9.83579 0 9.5 0.335786 9.5 0.75C9.5 1.16421 9.83579 1.5 10.25 1.5L17 1.5V16.5H10.25C9.83579 16.5 9.5 16.8358 9.5 17.25C9.5 17.6642 9.83579 18 10.25 18H17C17.3978 18 17.7794 17.842 18.0607 17.5607C18.342 17.2794 18.5 16.8978 18.5 16.5V1.5C18.5 1.10218 18.342 0.720645 18.0607 0.43934C17.7794 0.158035 17.3978 0 17 0H10.25ZM7.28217 4.53217C7.57506 4.23928 8.04994 4.23928 8.34283 4.53217L12.2803 8.46967C12.5732 8.76256 12.5732 9.23744 12.2803 9.53033L8.34283 13.4678C8.04994 13.7607 7.57506 13.7607 7.28217 13.4678C6.98928 13.1749 6.98928 12.7001 7.28217 12.4072L9.93934 9.75H1.24692C0.832704 9.75 0.496918 9.41421 0.496918 9C0.496918 8.58579 0.832704 8.25 1.24692 8.25H9.93934L7.28217 5.59283C6.98928 5.29994 6.98928 4.82506 7.28217 4.53217Z" fill="black"/>
</svg>
