<svg width="20" height="20" viewBox="0 0 20 20" fill="none" xmlns="http://www.w3.org/2000/svg">
<path fill-rule="evenodd" clip-rule="evenodd" d="M5.875 2.125C3.80393 2.125 2.125 3.80393 2.125 5.875V14.125C2.125 16.1961 3.80393 17.875 5.875 17.875H14.125C16.1961 17.875 17.875 16.1961 17.875 14.125V5.875C17.875 3.80393 16.1961 2.125 14.125 2.125H5.875ZM0.625 5.875C0.625 2.9755 2.9755 0.625 5.875 0.625H14.125C17.0245 0.625 19.375 2.9755 19.375 5.875V14.125C19.375 17.0245 17.0245 19.375 14.125 19.375H5.875C2.9755 19.375 0.625 17.0245 0.625 14.125V5.875ZM10 7C8.34315 7 7 8.34315 7 10C7 11.6569 8.34315 13 10 13C11.6569 13 13 11.6569 13 10C13 8.34315 11.6569 7 10 7ZM5.5 10C5.5 7.51472 7.51472 5.5 10 5.5C12.4853 5.5 14.5 7.51472 14.5 10C14.5 12.4853 12.4853 14.5 10 14.5C7.51472 14.5 5.5 12.4853 5.5 10ZM15.625 5.125C15.625 5.53921 15.2892 5.875 14.875 5.875C14.4608 5.875 14.125 5.53921 14.125 5.125C14.125 4.71079 14.4608 4.375 14.875 4.375C15.2892 4.375 15.625 4.71079 15.625 5.125Z" fill="black"/>
</svg>
