<svg width="20" height="20" viewBox="0 0 20 20" fill="none" xmlns="http://www.w3.org/2000/svg">
<path fill-rule="evenodd" clip-rule="evenodd" d="M7.37398 2.17673C5.31834 2.86646 3.62406 4.34369 2.64956 6.25H5.84552C6.04246 5.23359 6.31823 4.30728 6.65889 3.51165C6.86794 3.0234 7.10633 2.57288 7.37398 2.17673ZM5.62028 7.75H2.06055C1.85825 8.46525 1.75 9.21998 1.75 10C1.75 10.78 1.85825 11.5348 2.06055 12.25H5.62028C5.54144 11.5271 5.5 10.7732 5.5 9.99998C5.5 9.2268 5.54144 8.47289 5.62028 7.75ZM7.12991 12.25C7.04562 11.5377 7 10.7832 7 9.99998C7 9.21677 7.04562 8.46234 7.1299 7.75H12.8701C12.9544 8.46234 13 9.21677 13 9.99998C13 10.7832 12.9544 11.5377 12.8701 12.25H7.12991ZM5.84553 13.75H2.64956C3.62406 15.6563 5.31836 17.1336 7.37402 17.8233C7.10636 17.4271 6.86795 16.9766 6.65889 16.4883C6.31824 15.6927 6.04247 14.7664 5.84553 13.75ZM12.626 17.8233C14.6816 17.1336 16.3759 15.6563 17.3504 13.75H14.1545C13.9575 14.7664 13.6818 15.6927 13.3411 16.4883C13.1321 16.9766 12.8936 17.4271 12.626 17.8233ZM12.6237 13.75C12.4514 14.5563 12.2263 15.281 11.9622 15.8979C11.6467 16.6348 11.2902 17.1833 10.9326 17.5365C10.5782 17.8866 10.2639 18.0084 10 18.0084C9.73611 18.0084 9.42182 17.8866 9.06741 17.5365C8.7098 17.1833 8.35334 16.6348 8.03781 15.8979C7.7737 15.281 7.54861 14.5563 7.37626 13.75H12.6237ZM14.3797 12.25H17.9395C18.1417 11.5348 18.25 10.78 18.25 10C18.25 9.21998 18.1417 8.46525 17.9395 7.75H14.3797C14.4586 8.47289 14.5 9.2268 14.5 9.99998C14.5 10.7732 14.4586 11.5271 14.3797 12.25ZM14.1545 6.25H17.3504C16.3759 4.34369 14.6817 2.86646 12.626 2.17673C12.8937 2.57288 13.1321 3.0234 13.3411 3.51165C13.6818 4.30728 13.9575 5.23359 14.1545 6.25ZM12.6238 6.25H7.37625C7.5486 5.44366 7.77369 4.71893 8.03781 4.10205C8.35334 3.36511 8.7098 2.81669 9.06741 2.46341C9.42182 2.11331 9.73611 1.99158 10 1.99158C10.2639 1.99158 10.5782 2.11331 10.9326 2.46341C11.2902 2.81669 11.6467 3.36511 11.9622 4.10205C12.2263 4.71893 12.4514 5.44366 12.6238 6.25ZM10 0.25C4.61522 0.25 0.25 4.61522 0.25 10C0.25 15.3848 4.61522 19.75 10 19.75C15.3848 19.75 19.75 15.3848 19.75 10C19.75 4.61522 15.3848 0.25 10 0.25Z" fill="black"/>
</svg>
