<svg width="20" height="20" viewBox="0 0 20 20" fill="none" xmlns="http://www.w3.org/2000/svg">
<path fill-rule="evenodd" clip-rule="evenodd" d="M1.75 8.875C1.75 4.93997 4.93997 1.75 8.875 1.75C12.81 1.75 16 4.93997 16 8.875C16 12.81 12.81 16 8.875 16C4.93997 16 1.75 12.81 1.75 8.875ZM8.875 0.25C4.11154 0.25 0.25 4.11154 0.25 8.875C0.25 13.6385 4.11154 17.5 8.875 17.5C10.9865 17.5 12.9208 16.7412 14.4201 15.4815L18.4691 19.5305C18.762 19.8233 19.2369 19.8233 19.5298 19.5305C19.8226 19.2376 19.8226 18.7627 19.5298 18.4698L15.4808 14.4209C16.741 12.9215 17.5 10.9869 17.5 8.875C17.5 4.11154 13.6385 0.25 8.875 0.25Z" fill="black"/>
</svg>
