<svg width="22" height="19" viewBox="0 0 22 19" fill="none" xmlns="http://www.w3.org/2000/svg">
<path fill-rule="evenodd" clip-rule="evenodd" d="M19.153 0.715903C19.4071 0.616089 19.6836 0.587499 19.9527 0.633216C20.069 0.652973 20.182 0.686284 20.2896 0.732121C20.3105 0.740497 20.3312 0.749834 20.3514 0.760122C20.4694 0.816868 20.5801 0.889088 20.6802 0.975337C20.8871 1.15345 21.0414 1.38464 21.1266 1.64399C21.2118 1.90334 21.2246 2.18101 21.1636 2.44709L20.4581 2.28543L21.1636 2.44709L17.6373 17.8345C17.5793 18.0878 17.4564 18.3217 17.2808 18.5132C17.1052 18.7047 16.8829 18.8473 16.6356 18.9271C16.3882 19.0068 16.1245 19.0209 15.8701 18.9681C15.6157 18.9152 15.3793 18.7972 15.1843 18.6255L11.4928 15.377L9.06066 17.8092C8.85088 18.019 8.58361 18.1618 8.29264 18.2197C8.00166 18.2776 7.70006 18.2479 7.42598 18.1343C7.15189 18.0208 6.91762 17.8286 6.7528 17.5819C6.58798 17.3352 6.5 17.0452 6.5 16.7485V11.2592L2.10512 10.3802C1.78739 10.3166 1.49877 10.1519 1.28247 9.91067C1.06616 9.66942 0.933788 9.36461 0.90516 9.04185C0.876531 8.7191 0.953184 8.39575 1.12365 8.12019C1.29412 7.84463 1.54923 7.63168 1.85081 7.5132L2.12505 8.21126L1.85081 7.5132L19.153 0.715903ZM8 12.3034V16.7485L10.3644 14.3841L8 12.3034ZM11.96 13.7901C11.9567 13.7871 11.9533 13.7841 11.9499 13.7812L8.45095 10.7021L19.5739 2.66888L16.1752 17.4995L11.96 13.7901ZM2.39929 8.90932L15.4946 3.76475L7.07618 9.8447L2.39929 8.90932Z" fill="black"/>
</svg>
