<svg width="20" height="20" viewBox="0 0 20 20" fill="none" xmlns="http://www.w3.org/2000/svg">
<path fill-rule="evenodd" clip-rule="evenodd" d="M4.93772 3.49137C6.5243 2.25898 8.5062 1.64818 10.5113 1.77365C12.5163 1.89912 14.4066 2.75223 15.8272 4.1728C17.2478 5.59336 18.1009 7.48365 18.2264 9.48872C18.3519 11.4938 17.7411 13.4757 16.5087 15.0623C15.2763 16.6489 13.5071 17.731 11.5334 18.1055C9.56357 18.4792 7.52526 18.1225 5.79963 17.1023C5.62233 16.9931 5.40511 16.9614 5.20047 17.0199L2.09204 17.908L1.50656 17.7407L2.09204 17.908L2.98016 14.7996C3.03951 14.5919 3.00539 14.375 2.89738 14.1998C1.87749 12.4743 1.52088 10.4362 1.89454 8.46672C2.26901 6.49294 3.35113 4.72375 4.93772 3.49137ZM11.813 19.5792C9.58784 20.0014 7.28872 19.6349 5.309 18.5489L2.50413 19.3503C2.24692 19.4238 1.97473 19.4271 1.71578 19.36C1.45683 19.2929 1.22053 19.1578 1.03138 18.9687C0.842222 18.7795 0.707094 18.5432 0.639994 18.2842C0.572894 18.0253 0.576264 17.7531 0.649753 17.4959L1.45115 14.691C0.365165 12.7113 -0.00131917 10.4122 0.420828 8.18713C0.86341 5.85432 2.14238 3.76331 4.01756 2.30675C5.89275 0.850193 8.23516 0.128282 10.605 0.276576C12.9747 0.42487 15.2089 1.43317 16.8879 3.11214C18.5668 4.7911 19.5751 7.02524 19.7234 9.39503C19.8718 11.7648 19.1499 14.1072 17.6933 15.9824C16.2368 17.8576 14.1458 19.1366 11.813 19.5792ZM6.05121 6.42083C6.38861 6.0848 6.84077 5.89045 7.31526 5.87588L8.3809 7.74076L7.50068 9.2078C7.37426 9.4185 7.35907 9.67777 7.46001 9.90179C7.98806 11.0736 8.92637 12.0119 10.0982 12.54L10.4063 11.8562L10.7922 12.4993L12.2592 11.6191L14.1238 12.6846C14.1069 13.1582 13.9119 13.609 13.5763 13.946C13.2267 14.297 12.7528 14.4961 12.2574 14.5C11.3701 14.501 10.4913 14.327 9.67132 13.988C8.85064 13.6488 8.10497 13.1509 7.47703 12.523C6.84909 11.895 6.35124 11.1494 6.01198 10.3287C5.67282 9.50822 5.49884 8.62892 5.50001 7.74113C5.50177 7.24543 5.69998 6.77064 6.05121 6.42083ZM7.375 5.875L7.37436 5.875L7.37445 5.77214L7.37445 5.7715L7.375 5.125L7.375 5.77119L7.375 5.875ZM4.99271 5.35802C5.62546 4.72784 6.4823 4.37433 7.37531 4.375L7.93605 5.45059L7.93712 5.44998L8.58723 5.07849L9.68327 6.99655C9.81547 7.22789 9.88365 7.49027 9.88082 7.75671C9.87799 8.02315 9.80423 8.28402 9.66714 8.5125L9.0007 9.62323C9.3309 10.1945 9.80555 10.6691 10.3768 10.9993L11.4875 10.3329C11.716 10.1958 11.9769 10.122 12.2433 10.1192C12.5097 10.1164 12.7721 10.1845 13.0035 10.3167L14.9215 11.4128C15.1352 11.5349 15.3128 11.7113 15.4364 11.9242C15.5599 12.1371 15.625 12.3789 15.625 12.625L14.8751 12.625L15.625 12.6271C15.6224 13.5185 15.2682 14.3729 14.6391 15.0045C14.0101 15.636 13.1572 15.9938 12.2659 16L12.2607 15.25L12.2617 16C11.1763 16.0015 10.1013 15.7889 9.09828 15.3743C8.09523 14.9596 7.18385 14.3511 6.41637 13.5836C5.64889 12.8162 5.0404 11.9048 4.62575 10.9017C4.21111 9.89867 3.99847 8.82366 4.00001 7.73828L4.00001 7.73693C4.00288 6.8438 4.35989 5.98828 4.99271 5.35802ZM8.07579 4.56361C8.28867 4.68716 8.46512 4.86478 8.58723 5.07849L7.37564 4.375C7.62156 4.37511 7.86309 4.44018 8.07579 4.56361Z" fill="black"/>
</svg>
